<svg xmlns="http://www.w3.org/2000/svg" xmlns:xlink="http://www.w3.org/1999/xlink" width="500" zoomAndPan="magnify" viewBox="0 0 375 374.999991" height="500" preserveAspectRatio="xMidYMid meet" version="1.0"><defs><clipPath id="5b54b64b7e"><path d="M 34.621094 28.066406 L 351.714844 28.066406 L 351.714844 345.40625 L 34.621094 345.40625 Z M 34.621094 28.066406 " clip-rule="nonzero"/></clipPath><clipPath id="96b38372ec"><path d="M 23.214844 28 L 341 28 L 341 346 L 23.214844 346 Z M 23.214844 28 " clip-rule="nonzero"/></clipPath><clipPath id="d9c423b355"><path d="M 34.621094 28.066406 L 351.714844 28.066406 L 351.714844 345.40625 L 34.621094 345.40625 Z M 34.621094 28.066406 " clip-rule="nonzero"/></clipPath><clipPath id="2e58a5567c"><path d="M 23.214844 28 L 341 28 L 341 346 L 23.214844 346 Z M 23.214844 28 " clip-rule="nonzero"/></clipPath></defs><g clip-path="url(#5b54b64b7e)"><path fill="#282828" d="M 40.328125 312.148438 C 32.722656 319.765625 32.722656 332.078125 40.328125 339.695312 C 47.933594 347.308594 60.226562 347.308594 67.832031 339.695312 C 75.4375 332.078125 75.4375 319.765625 67.832031 312.148438 C 60.226562 304.59375 47.867188 304.59375 40.328125 312.148438 Z M 158.339844 285.429688 C 157.390625 287.585938 154.601562 288.160156 152.890625 286.507812 C 141.484375 275.527344 133.371094 263.660156 129.375 250.519531 C 116.320312 246.460938 104.46875 238.335938 93.566406 226.847656 C 91.917969 225.132812 92.488281 222.34375 94.644531 221.390625 L 107.257812 215.996094 L 80.890625 215.296875 C 78.164062 215.230469 75.753906 217.136719 75.1875 219.804688 L 72.902344 230.527344 C 72.460938 232.75 73.09375 235.035156 74.679688 236.621094 L 94.390625 256.359375 C 96.609375 258.582031 96.671875 262.199219 94.515625 264.484375 L 60.101562 301.675781 C 64.347656 302.757812 68.339844 304.914062 71.636719 308.210938 C 74.933594 311.515625 77.085938 315.511719 78.164062 319.765625 L 115.304688 285.300781 C 117.652344 283.144531 121.199219 283.207031 123.417969 285.429688 L 142.75 304.785156 C 144.269531 306.308594 146.425781 307.007812 148.582031 306.625 L 159.609375 304.722656 C 162.398438 304.277344 164.425781 301.804688 164.363281 299.011719 L 163.792969 272.800781 Z M 351.714844 28.066406 L 335.488281 88.675781 L 145.09375 269.371094 C 140.660156 263.277344 137.363281 257.058594 135.207031 250.710938 L 310.578125 75.09375 C 312.164062 73.507812 312.164062 70.839844 310.578125 69.253906 C 309.757812 68.429688 308.742188 68.050781 307.664062 68.050781 C 306.589844 68.050781 305.574219 68.429688 304.75 69.253906 L 129.441406 244.746094 C 122.59375 242.398438 115.875 238.714844 109.347656 233.765625 L 291.058594 43.996094 L 351.714844 28.066406 " fill-opacity="1" fill-rule="nonzero"/></g><g clip-path="url(#96b38372ec)"><path fill="#282828" d="M 334.664062 312.148438 C 327.058594 304.535156 314.761719 304.535156 307.15625 312.148438 C 299.550781 319.765625 299.550781 332.078125 307.15625 339.695312 C 314.761719 347.308594 327.058594 347.308594 334.664062 339.695312 C 342.269531 332.078125 342.269531 319.765625 334.664062 312.148438 Z M 314.761719 301.738281 L 280.347656 264.546875 C 278.195312 262.199219 278.253906 258.644531 280.472656 256.425781 L 300.1875 236.683594 C 301.769531 235.097656 302.46875 232.8125 301.960938 230.59375 L 299.679688 219.867188 C 299.109375 217.199219 296.699219 215.296875 293.972656 215.359375 L 267.609375 216.058594 L 280.222656 221.453125 C 282.375 222.402344 282.945312 225.199219 281.296875 226.910156 C 270.398438 238.398438 258.546875 246.585938 245.488281 250.585938 C 241.496094 263.660156 233.382812 275.589844 221.976562 286.570312 C 220.261719 288.21875 217.476562 287.648438 216.523438 285.492188 L 211.074219 272.925781 L 210.503906 299.140625 C 210.4375 301.929688 212.46875 304.40625 215.257812 304.851562 L 226.285156 306.753906 C 228.375 307.132812 230.59375 306.4375 232.117188 304.914062 L 251.449219 285.554688 C 253.664062 283.332031 257.277344 283.273438 259.558594 285.429688 L 296.699219 319.890625 C 297.777344 315.640625 299.933594 311.640625 303.230469 308.339844 C 306.523438 304.976562 310.578125 302.757812 314.761719 301.738281 Z M 265.578125 233.765625 L 230.023438 196.636719 L 213.289062 212.503906 L 245.488281 244.746094 C 252.398438 242.460938 259.113281 238.78125 265.578125 233.765625 Z M 239.785156 250.710938 L 207.332031 218.214844 L 191.613281 233.066406 L 229.898438 269.371094 C 234.335938 263.277344 237.628906 257.058594 239.785156 250.710938 Z M 83.867188 43.996094 L 183.5 148.085938 L 166.578125 165.726562 L 70.242188 69.253906 C 69.417969 68.429688 68.40625 68.050781 67.328125 68.050781 C 66.25 68.050781 65.234375 68.429688 64.410156 69.253906 C 62.828125 70.839844 62.828125 73.507812 64.410156 75.09375 L 160.875 171.695312 L 144.714844 188.574219 L 39.441406 88.675781 L 23.214844 28.066406 L 83.867188 43.996094 " fill-opacity="1" fill-rule="nonzero"/></g><g clip-path="url(#d9c423b355)"><path fill="#282828" d="M 40.328125 312.148438 C 32.722656 319.765625 32.722656 332.078125 40.328125 339.695312 C 47.933594 347.308594 60.226562 347.308594 67.832031 339.695312 C 75.4375 332.078125 75.4375 319.765625 67.832031 312.148438 C 60.226562 304.59375 47.867188 304.59375 40.328125 312.148438 Z M 158.339844 285.429688 C 157.390625 287.585938 154.601562 288.160156 152.890625 286.507812 C 141.484375 275.527344 133.371094 263.660156 129.375 250.519531 C 116.320312 246.460938 104.46875 238.335938 93.566406 226.847656 C 91.917969 225.132812 92.488281 222.34375 94.644531 221.390625 L 107.257812 215.996094 L 80.890625 215.296875 C 78.164062 215.230469 75.753906 217.136719 75.1875 219.804688 L 72.902344 230.527344 C 72.460938 232.75 73.09375 235.035156 74.679688 236.621094 L 94.390625 256.359375 C 96.609375 258.582031 96.671875 262.199219 94.515625 264.484375 L 60.101562 301.675781 C 64.347656 302.757812 68.339844 304.914062 71.636719 308.210938 C 74.933594 311.515625 77.085938 315.511719 78.164062 319.765625 L 115.304688 285.300781 C 117.652344 283.144531 121.199219 283.207031 123.417969 285.429688 L 142.75 304.785156 C 144.269531 306.308594 146.425781 307.007812 148.582031 306.625 L 159.609375 304.722656 C 162.398438 304.277344 164.425781 301.804688 164.363281 299.011719 L 163.792969 272.800781 Z M 351.714844 28.066406 L 335.488281 88.675781 L 145.09375 269.371094 C 140.660156 263.277344 137.363281 257.058594 135.207031 250.710938 L 310.578125 75.09375 C 312.164062 73.507812 312.164062 70.839844 310.578125 69.253906 C 309.757812 68.429688 308.742188 68.050781 307.664062 68.050781 C 306.589844 68.050781 305.574219 68.429688 304.75 69.253906 L 129.441406 244.746094 C 122.59375 242.398438 115.875 238.714844 109.347656 233.765625 L 291.058594 43.996094 L 351.714844 28.066406 " fill-opacity="1" fill-rule="nonzero"/></g><g clip-path="url(#2e58a5567c)"><path fill="#282828" d="M 334.664062 312.148438 C 327.058594 304.535156 314.761719 304.535156 307.15625 312.148438 C 299.550781 319.765625 299.550781 332.078125 307.15625 339.695312 C 314.761719 347.308594 327.058594 347.308594 334.664062 339.695312 C 342.269531 332.078125 342.269531 319.765625 334.664062 312.148438 Z M 314.761719 301.738281 L 280.347656 264.546875 C 278.195312 262.199219 278.253906 258.644531 280.472656 256.425781 L 300.1875 236.683594 C 301.769531 235.097656 302.46875 232.8125 301.960938 230.59375 L 299.679688 219.867188 C 299.109375 217.199219 296.699219 215.296875 293.972656 215.359375 L 267.609375 216.058594 L 280.222656 221.453125 C 282.375 222.402344 282.945312 225.199219 281.296875 226.910156 C 270.398438 238.398438 258.546875 246.585938 245.488281 250.585938 C 241.496094 263.660156 233.382812 275.589844 221.976562 286.570312 C 220.261719 288.21875 217.476562 287.648438 216.523438 285.492188 L 211.074219 272.925781 L 210.503906 299.140625 C 210.4375 301.929688 212.46875 304.40625 215.257812 304.851562 L 226.285156 306.753906 C 228.375 307.132812 230.59375 306.4375 232.117188 304.914062 L 251.449219 285.554688 C 253.664062 283.332031 257.277344 283.273438 259.558594 285.429688 L 296.699219 319.890625 C 297.777344 315.640625 299.933594 311.640625 303.230469 308.339844 C 306.523438 304.976562 310.578125 302.757812 314.761719 301.738281 Z M 265.578125 233.765625 L 230.023438 196.636719 L 213.289062 212.503906 L 245.488281 244.746094 C 252.398438 242.460938 259.113281 238.78125 265.578125 233.765625 Z M 239.785156 250.710938 L 207.332031 218.214844 L 191.613281 233.066406 L 229.898438 269.371094 C 234.335938 263.277344 237.628906 257.058594 239.785156 250.710938 Z M 83.867188 43.996094 L 183.5 148.085938 L 166.578125 165.726562 L 70.242188 69.253906 C 69.417969 68.429688 68.40625 68.050781 67.328125 68.050781 C 66.25 68.050781 65.234375 68.429688 64.410156 69.253906 C 62.828125 70.839844 62.828125 73.507812 64.410156 75.09375 L 160.875 171.695312 L 144.714844 188.574219 L 39.441406 88.675781 L 23.214844 28.066406 L 83.867188 43.996094 " fill-opacity="1" fill-rule="nonzero"/></g></svg>