<svg xmlns="http://www.w3.org/2000/svg" xmlns:xlink="http://www.w3.org/1999/xlink" width="500" zoomAndPan="magnify" viewBox="0 0 375 374.999991" height="500" preserveAspectRatio="xMidYMid meet" version="1.0"><defs><clipPath id="954b400eb5"><path d="M 27.898438 27.898438 L 347.101562 27.898438 L 347.101562 347.101562 L 27.898438 347.101562 Z M 27.898438 27.898438 " clip-rule="nonzero"/></clipPath><clipPath id="31dad7edb9"><path d="M 187.5 27.898438 C 99.355469 27.898438 27.898438 99.355469 27.898438 187.5 C 27.898438 275.644531 99.355469 347.101562 187.5 347.101562 C 275.644531 347.101562 347.101562 275.644531 347.101562 187.5 C 347.101562 99.355469 275.644531 27.898438 187.5 27.898438 Z M 187.5 27.898438 " clip-rule="nonzero"/></clipPath><clipPath id="dcbc16bbc3"><path d="M 27.898438 27.898438 L 347.09375 27.898438 L 347.09375 347.09375 L 27.898438 347.09375 Z M 27.898438 27.898438 " clip-rule="nonzero"/></clipPath><clipPath id="23c13c2d60"><path d="M 187.496094 27.898438 C 99.351562 27.898438 27.898438 99.351562 27.898438 187.496094 C 27.898438 275.636719 99.351562 347.09375 187.496094 347.09375 C 275.636719 347.09375 347.09375 275.636719 347.09375 187.496094 C 347.09375 99.351562 275.636719 27.898438 187.496094 27.898438 Z M 187.496094 27.898438 " clip-rule="nonzero"/></clipPath><clipPath id="7ecb0f9fbb"><path d="M 112.636719 131.25 L 264 131.25 L 264 243.75 L 112.636719 243.75 Z M 112.636719 131.25 " clip-rule="nonzero"/></clipPath><clipPath id="5135eb495b"><path d="M 188.292969 131.25 C 146.511719 131.25 112.636719 156.433594 112.636719 187.5 C 112.636719 218.566406 146.511719 243.75 188.292969 243.75 C 230.074219 243.75 263.945312 218.566406 263.945312 187.5 C 263.945312 156.433594 230.074219 131.25 188.292969 131.25 Z M 188.292969 131.25 " clip-rule="nonzero"/></clipPath><clipPath id="7e876446f1"><path d="M 132.042969 201.539062 L 244.726562 201.539062 L 244.726562 312.917969 L 132.042969 312.917969 Z M 132.042969 201.539062 " clip-rule="nonzero"/></clipPath><clipPath id="9e4f3482b7"><path d="M 188.292969 201.539062 C 157.226562 201.539062 132.042969 226.472656 132.042969 257.226562 C 132.042969 287.984375 157.226562 312.917969 188.292969 312.917969 C 219.359375 312.917969 244.542969 287.984375 244.542969 257.226562 C 244.542969 226.472656 219.359375 201.539062 188.292969 201.539062 Z M 188.292969 201.539062 " clip-rule="nonzero"/></clipPath></defs><g clip-path="url(#954b400eb5)"><g clip-path="url(#31dad7edb9)"><path fill="#043c86" d="M 27.898438 27.898438 L 347.101562 27.898438 L 347.101562 347.101562 L 27.898438 347.101562 Z M 27.898438 27.898438 " fill-opacity="1" fill-rule="nonzero"/></g></g><g clip-path="url(#dcbc16bbc3)"><g clip-path="url(#23c13c2d60)"><path stroke-linecap="butt" transform="matrix(0.75, 0, 0, 0.75, 27.897311, 27.897307)" fill="none" stroke-linejoin="miter" d="M 212.798391 0.00150791 C 95.272341 0.00150791 0.00150191 95.272347 0.00150191 212.798397 C 0.00150191 330.319238 95.272341 425.595286 212.798391 425.595286 C 330.319232 425.595286 425.59528 330.319238 425.59528 212.798397 C 425.59528 95.272347 330.319232 0.00150791 212.798391 0.00150791 Z M 212.798391 0.00150791 " stroke="#000000" stroke-width="8" stroke-opacity="1" stroke-miterlimit="4"/></g></g><g clip-path="url(#7ecb0f9fbb)"><g clip-path="url(#5135eb495b)"><path fill="#000000" d="M 112.636719 131.25 L 263.808594 131.25 L 263.808594 243.75 L 112.636719 243.75 Z M 112.636719 131.25 " fill-opacity="1" fill-rule="nonzero"/></g></g><path fill="#000000" d="M 276.683594 139.9375 C 276.691406 139.902344 276.679688 139.875 276.648438 139.859375 C 276.613281 139.84375 276.585938 139.847656 276.5625 139.875 C 271.15625 145.507812 268.496094 151.789062 269.910156 159.558594 C 271.242188 164.917969 273.507812 169.851562 276.707031 174.359375 C 280.601562 180.558594 277.121094 184.957031 276.21875 190.875 C 275.675781 194.476562 278.683594 196.359375 280.90625 198.558594 C 287.042969 204.617188 291.632812 213.664062 286.207031 221.925781 C 284.75 224.144531 282.300781 227.667969 278.847656 232.496094 C 276.515625 235.773438 273.632812 239.496094 270.011719 240.914062 C 265.785156 242.570312 261.492188 241.015625 257.492188 239.382812 C 251.074219 236.765625 243.90625 234.023438 237.945312 239.101562 C 230.25 245.644531 230.511719 259.867188 230.714844 269.175781 C 230.78125 272.167969 230.671875 275.152344 230.390625 278.132812 C 230.199219 279.472656 230.375 280.761719 230.921875 282 C 230.945312 282.066406 230.992188 282.082031 231.054688 282.054688 C 231.074219 282.050781 231.089844 282.039062 231.101562 282.019531 C 231.332031 281.621094 231.507812 281.109375 231.726562 280.753906 C 238.640625 269.738281 241.519531 256.011719 242.179688 242.921875 C 242.203125 242.585938 242.3125 242.28125 242.503906 242.007812 C 242.695312 241.734375 242.945312 241.527344 243.25 241.386719 C 243.828125 241.132812 244.433594 240.957031 245.058594 240.867188 C 245.6875 240.777344 246.316406 240.773438 246.941406 240.855469 C 247.570312 240.9375 248.175781 241.101562 248.757812 241.351562 C 249.34375 241.601562 249.878906 241.921875 250.375 242.320312 C 250.6875 242.492188 250.921875 242.734375 251.082031 243.054688 C 251.242188 243.371094 251.296875 243.707031 251.25 244.058594 C 249.523438 256.664062 248.675781 269.328125 248.699219 282.050781 C 248.792969 287.566406 251.769531 292.128906 252.339844 297.570312 C 252.976562 303.667969 249.105469 308.480469 243.902344 311.035156 C 239.917969 312.984375 235.59375 315.019531 232.011719 317.03125 C 223.683594 321.730469 215.949219 327.261719 208.808594 333.621094 C 204.535156 337.410156 194.421875 333.796875 189.492188 332.621094 C 188.480469 332.445312 187.472656 332.472656 186.472656 332.707031 C 183.285156 333.480469 180.082031 334.183594 176.871094 334.8125 C 173.730469 335.433594 169.792969 335.816406 167.386719 333.601562 C 160.453125 327.207031 152.847656 321.753906 144.5625 317.238281 C 141.792969 315.726562 137.9375 313.929688 134.605469 312.289062 C 129.871094 309.960938 124.613281 307.164062 123.4375 301.480469 C 123.203125 299.542969 123.242188 297.609375 123.554688 295.679688 C 123.871094 293.753906 124.445312 291.90625 125.28125 290.140625 C 126.5 286.992188 127.085938 283.730469 127.042969 280.359375 C 126.988281 271.449219 126.445312 262.570312 125.410156 253.722656 C 125.035156 250.519531 124.675781 247.320312 124.328125 244.117188 C 124.03125 241.355469 133.359375 238.46875 133.59375 243.652344 C 134.222656 253.347656 136.242188 262.742188 139.65625 271.835938 C 140.914062 275.328125 142.589844 278.605469 144.683594 281.667969 C 144.730469 281.738281 144.792969 281.777344 144.871094 281.792969 C 144.949219 281.808594 145.023438 281.792969 145.089844 281.746094 C 145.140625 281.710938 145.175781 281.667969 145.199219 281.613281 C 145.554688 280.710938 145.6875 279.78125 145.605469 278.816406 C 145.308594 274.511719 145.152344 270.207031 145.140625 265.894531 C 145.238281 261.136719 144.964844 256.402344 144.316406 251.6875 C 142.761719 242.265625 137.027344 234.21875 126.175781 236.710938 C 121.207031 237.859375 116.6875 240.757812 111.617188 241.480469 C 104.828125 242.441406 101.589844 238.386719 97.941406 233.578125 C 94.730469 229.472656 91.769531 225.199219 89.054688 220.75 C 83.773438 211.714844 91.179688 201.113281 98.199219 195.59375 C 101.550781 192.96875 98.242188 185.460938 97.710938 182.605469 C 97.472656 181.1875 97.5 179.777344 97.792969 178.371094 C 98.085938 176.964844 98.625 175.65625 99.410156 174.453125 C 102.835938 168.242188 106.929688 162.070312 106.570312 154.820312 C 106.394531 152.027344 105.714844 149.355469 104.535156 146.8125 C 103.355469 144.273438 101.757812 142.027344 99.738281 140.085938 C 99.667969 140.019531 99.601562 140.019531 99.53125 140.085938 C 99.5 140.121094 99.488281 140.160156 99.496094 140.207031 C 100.097656 143.609375 100.613281 147.035156 101.046875 150.480469 C 101.355469 152.511719 101.457031 154.550781 101.347656 156.601562 C 100.542969 161.222656 99.035156 165.605469 96.828125 169.742188 C 96.773438 169.859375 96.722656 169.859375 96.675781 169.742188 C 91.863281 158.292969 89.175781 146.363281 88.621094 133.957031 C 88.472656 130.761719 88.597656 127.578125 88.988281 124.40625 C 89.433594 120.480469 90.148438 116.601562 91.132812 112.773438 C 92.117188 108.945312 93.359375 105.199219 94.859375 101.542969 C 96.363281 97.886719 98.109375 94.351562 100.097656 90.933594 C 102.089844 87.519531 104.308594 84.253906 106.75 81.144531 C 110.5 76.53125 114.632812 72.289062 119.140625 68.410156 C 123.648438 64.53125 128.464844 61.085938 133.589844 58.066406 C 138.714844 55.046875 144.066406 52.503906 149.644531 50.4375 C 155.222656 48.371094 160.941406 46.816406 166.796875 45.769531 C 170.191406 45.109375 173.613281 44.609375 177.054688 44.265625 C 180.496094 43.925781 183.949219 43.742188 187.410156 43.726562 C 190.867188 43.707031 194.320312 43.847656 197.769531 44.152344 C 201.214844 44.457031 204.640625 44.921875 208.042969 45.542969 C 211.445312 46.167969 214.8125 46.949219 218.144531 47.886719 C 221.472656 48.828125 224.75 49.917969 227.980469 51.164062 C 231.207031 52.410156 234.371094 53.800781 237.464844 55.34375 C 240.5625 56.882812 243.582031 58.566406 246.523438 60.386719 C 249.332031 62.140625 252.035156 64.042969 254.628906 66.097656 C 257.222656 68.152344 259.695312 70.347656 262.039062 72.679688 C 264.386719 75.015625 266.597656 77.472656 268.667969 80.054688 C 270.738281 82.636719 272.65625 85.324219 274.421875 88.125 C 276.1875 90.921875 277.792969 93.808594 279.234375 96.789062 C 280.675781 99.765625 281.941406 102.816406 283.039062 105.9375 C 284.136719 109.058594 285.054688 112.230469 285.792969 115.457031 C 286.535156 118.679688 287.089844 121.933594 287.460938 125.222656 C 287.804688 128.304688 287.894531 131.390625 287.726562 134.488281 C 287.496094 140.550781 286.675781 146.535156 285.269531 152.4375 C 283.863281 158.339844 281.894531 164.050781 279.367188 169.570312 C 279.335938 169.632812 279.289062 169.648438 279.226562 169.617188 C 279.207031 169.605469 279.1875 169.589844 279.175781 169.570312 C 277.320312 166.203125 275.960938 162.644531 275.089844 158.902344 C 274.796875 156.898438 274.746094 154.886719 274.9375 152.871094 C 275.320312 148.511719 275.902344 144.203125 276.683594 139.9375 Z M 112.75 200.917969 C 115.148438 209.578125 120.332031 215.636719 130.125 214.636719 C 138.476562 213.785156 147 209.804688 154.339844 205.617188 C 161.273438 201.65625 178.046875 190.570312 173.667969 180.65625 C 171.738281 176.285156 166.519531 174.132812 162.355469 172.621094 C 152.179688 168.914062 141.695312 166.667969 130.894531 165.882812 C 128.230469 165.730469 125.644531 166.101562 123.132812 167 C 119.023438 168.386719 115.890625 172.90625 114.355469 176.808594 C 112.804688 180.636719 111.894531 184.613281 111.617188 188.734375 C 111.34375 192.855469 111.722656 196.917969 112.75 200.917969 Z M 211.558594 173.316406 C 186.101562 183.257812 214.574219 202.359375 224.394531 207.4375 C 231.484375 211.097656 238.589844 214.253906 246.28125 214.714844 C 255.824219 215.28125 261.8125 207.9375 263.417969 199.257812 C 264.121094 195.507812 264.304688 191.730469 263.96875 187.929688 C 263.632812 184.128906 262.789062 180.445312 261.433594 176.875 C 258.332031 168.476562 253.214844 165.335938 244.078125 165.988281 C 232.867188 166.78125 222.027344 169.222656 211.558594 173.316406 Z M 173.835938 239.480469 C 174.023438 240 174.292969 240.472656 174.636719 240.90625 C 174.980469 241.339844 175.382812 241.707031 175.84375 242.007812 C 176.304688 242.3125 176.804688 242.535156 177.335938 242.675781 C 177.871094 242.820312 178.414062 242.875 178.964844 242.839844 C 181.460938 242.339844 183.371094 239.445312 185.984375 238.617188 C 187.03125 238.273438 188.097656 238.195312 189.183594 238.386719 C 190.269531 238.574219 191.25 239.003906 192.121094 239.679688 C 193.664062 241.09375 195.421875 242.148438 197.398438 242.84375 C 199.777344 243.125 201.566406 240.980469 202.394531 238.980469 C 203.160156 237.148438 203.628906 235.246094 203.796875 233.269531 C 203.96875 231.292969 203.828125 229.335938 203.382812 227.402344 C 201.691406 220.910156 199.402344 214.636719 196.515625 208.582031 C 195.222656 205.167969 193.25 202.199219 190.605469 199.679688 C 184.164062 194.445312 177.6875 212.320312 176.261719 215.890625 C 173.183594 223.59375 169.910156 231.363281 173.835938 239.480469 Z M 227.539062 265.265625 C 226.027344 266.363281 225.441406 277.5625 225.335938 279.738281 C 225.335938 279.863281 225.382812 279.902344 225.5 279.867188 C 228.625 278.875 228.847656 276.546875 228.890625 273.4375 C 228.925781 270.671875 228.535156 267.972656 227.722656 265.332031 C 227.699219 265.265625 227.65625 265.238281 227.585938 265.25 Z M 146.882812 274.621094 C 146.851562 275.203125 146.90625 275.777344 147.054688 276.347656 C 147.199219 276.914062 147.425781 277.445312 147.738281 277.941406 C 148.046875 278.4375 148.425781 278.875 148.871094 279.257812 C 149.316406 279.636719 149.808594 279.941406 150.347656 280.167969 C 150.441406 280.210938 150.507812 280.1875 150.550781 280.09375 C 150.5625 280.070312 150.566406 280.046875 150.566406 280.019531 C 150.515625 275.0625 149.851562 270.191406 148.574219 265.398438 C 148.546875 265.320312 148.496094 265.289062 148.414062 265.316406 C 148.375 265.328125 148.347656 265.355469 148.332031 265.394531 C 147.242188 268.371094 146.757812 271.449219 146.882812 274.621094 Z M 221.703125 267.632812 C 219.417969 271.78125 219.152344 276 218.585938 280.929688 C 218.523438 281.386719 218.507812 281.84375 218.53125 282.304688 C 218.539062 282.421875 218.601562 282.476562 218.71875 282.464844 C 218.734375 282.46875 218.753906 282.46875 218.769531 282.464844 L 222.476562 280.941406 C 222.605469 280.890625 222.6875 280.800781 222.726562 280.671875 C 223.324219 278.527344 223.570312 276.34375 223.460938 274.117188 C 223.347656 271.894531 222.886719 269.746094 222.078125 267.671875 C 222.03125 267.542969 221.941406 267.503906 221.8125 267.546875 C 221.765625 267.5625 221.730469 267.589844 221.703125 267.632812 Z M 152.429688 277.082031 C 152.636719 280.648438 153.488281 281.496094 156.980469 282.28125 C 157.105469 282.304688 157.183594 282.253906 157.214844 282.132812 C 157.214844 282.113281 157.214844 282.097656 157.214844 282.082031 C 157.394531 277.179688 156.445312 272.503906 154.371094 268.054688 C 154.335938 267.988281 154.28125 267.941406 154.207031 267.921875 C 154.136719 267.898438 154.066406 267.90625 153.996094 267.941406 C 153.9375 267.972656 153.894531 268.023438 153.871094 268.085938 C 152.710938 270.976562 152.230469 273.976562 152.429688 277.082031 Z M 210.78125 284.167969 C 212.578125 284.328125 216.613281 284.121094 216.582031 281.703125 C 216.652344 277.550781 215.808594 273.589844 214.050781 269.824219 C 214.007812 269.746094 213.945312 269.691406 213.859375 269.660156 C 213.773438 269.632812 213.691406 269.636719 213.609375 269.679688 C 213.546875 269.710938 213.5 269.753906 213.464844 269.816406 C 213.140625 270.417969 212.882812 271.050781 212.691406 271.707031 C 211.601562 275.3125 210.8125 278.984375 210.3125 282.71875 C 210.273438 283.097656 210.304688 283.46875 210.398438 283.839844 C 210.433594 284.054688 210.5625 284.164062 210.78125 284.167969 Z M 160.089844 283.5625 C 161.636719 284.03125 163.21875 284.277344 164.835938 284.304688 C 164.957031 284.304688 165.058594 284.265625 165.148438 284.179688 C 165.234375 284.097656 165.28125 283.992188 165.28125 283.875 C 165.042969 279.28125 164.207031 274.804688 162.765625 270.4375 C 162.726562 270.253906 162.644531 270.09375 162.515625 269.953125 C 162.46875 269.902344 162.40625 269.875 162.335938 269.875 C 162.265625 269.875 162.207031 269.902344 162.15625 269.953125 C 162.140625 269.964844 162.128906 269.980469 162.117188 269.996094 C 160.269531 273.332031 159.339844 276.902344 159.316406 280.710938 C 159.253906 281.460938 159.304688 282.203125 159.46875 282.9375 C 159.554688 283.265625 159.761719 283.472656 160.089844 283.5625 Z M 167.683594 283.382812 C 167.578125 285.222656 173.230469 286.09375 174.53125 286.203125 C 174.714844 286.242188 174.894531 286.226562 175.066406 286.148438 C 175.277344 285.976562 175.371094 285.75 175.355469 285.480469 C 175.214844 282.789062 174.09375 271.972656 171.160156 270.921875 C 170.921875 270.839844 170.738281 270.90625 170.605469 271.117188 C 168.675781 274.976562 167.699219 279.066406 167.683594 283.382812 Z M 204.472656 270.976562 C 201.246094 273.878906 200.789062 280.441406 200.421875 284.898438 C 200.390625 285.304688 200.480469 285.6875 200.691406 286.035156 C 200.742188 286.125 200.820312 286.171875 200.925781 286.175781 C 203.3125 286.125 205.554688 285.523438 207.652344 284.375 C 207.773438 284.3125 207.839844 284.210938 207.839844 284.074219 C 208.011719 280.8125 207.03125 273.164062 204.980469 270.996094 C 204.910156 270.925781 204.828125 270.890625 204.730469 270.886719 C 204.632812 270.882812 204.546875 270.914062 204.472656 270.976562 Z M 178.390625 286.261719 C 179.582031 286.929688 180.859375 287.316406 182.222656 287.433594 C 183.582031 287.546875 184.90625 287.378906 186.195312 286.925781 C 186.40625 286.855469 186.507812 286.707031 186.5 286.484375 C 186.359375 283.023438 184.941406 273.523438 181.636719 271.765625 C 181.550781 271.71875 181.457031 271.703125 181.363281 271.726562 C 179.199219 272.171875 178.128906 282.207031 178.03125 284.640625 C 177.996094 285.292969 177.535156 285.726562 178.390625 286.261719 Z M 189.777344 287.058594 C 191.121094 287.433594 192.488281 287.527344 193.871094 287.332031 C 195.253906 287.140625 196.539062 286.679688 197.730469 285.953125 C 197.882812 285.867188 197.953125 285.738281 197.941406 285.5625 C 197.75 281.238281 197.003906 277.011719 195.703125 272.878906 C 194.667969 269.617188 191.996094 274.367188 191.613281 275.351562 C 190.199219 278.964844 189.464844 282.707031 189.414062 286.582031 C 189.40625 286.832031 189.523438 286.992188 189.765625 287.058594 Z M 227.191406 294.761719 C 228.664062 290.371094 229.140625 285.871094 228.621094 281.269531 C 228.609375 281.148438 228.542969 281.09375 228.421875 281.105469 C 228.378906 281.109375 228.339844 281.125 228.3125 281.15625 C 227.464844 281.988281 226.472656 282.5625 225.328125 282.882812 C 225.226562 282.910156 225.15625 282.980469 225.125 283.082031 C 224.976562 283.617188 225.238281 284.046875 225.253906 284.402344 C 225.40625 287.917969 225.957031 291.367188 226.910156 294.753906 C 226.992188 295.0625 227.082031 295.0625 227.179688 294.761719 Z M 150.710938 282.832031 L 147.699219 281.714844 C 147.664062 281.695312 147.625 281.695312 147.589844 281.714844 C 147.554688 281.730469 147.535156 281.761719 147.535156 281.800781 C 146.882812 286.136719 147.273438 290.371094 148.714844 294.511719 C 148.777344 294.742188 148.914062 294.792969 149.121094 294.683594 C 149.996094 290.878906 150.589844 287.027344 150.90625 283.132812 C 150.929688 282.96875 150.859375 282.867188 150.695312 282.832031 Z M 221.550781 298 C 222.96875 294.730469 223.570312 291.320312 223.347656 287.765625 C 223.277344 286.597656 223.210938 285.417969 223.140625 284.222656 C 223.140625 284.085938 223.070312 284.042969 222.945312 284.09375 L 218.84375 285.792969 C 218.746094 285.828125 218.703125 285.894531 218.714844 285.996094 C 219.121094 290.234375 219.96875 294.378906 221.25 298.4375 C 221.257812 298.472656 221.277344 298.496094 221.316406 298.503906 C 221.351562 298.511719 221.382812 298.5 221.402344 298.46875 C 221.5 298.324219 221.46875 298.160156 221.535156 298 Z M 156.964844 285.558594 L 152.949219 284.238281 C 152.851562 284.207031 152.800781 284.238281 152.789062 284.34375 C 152.410156 286.753906 152.371094 289.167969 152.675781 291.585938 C 152.980469 294.003906 153.613281 296.335938 154.574219 298.574219 C 154.59375 298.609375 154.621094 298.617188 154.65625 298.605469 C 154.675781 298.597656 154.683594 298.582031 154.6875 298.5625 C 155.839844 294.394531 156.667969 290.164062 157.171875 285.871094 C 157.183594 285.796875 157.167969 285.730469 157.125 285.667969 C 157.082031 285.605469 157.023438 285.570312 156.953125 285.558594 Z M 213.003906 300.578125 C 215.007812 296.132812 216.105469 291.472656 216.296875 286.601562 C 216.3125 286.476562 216.257812 286.429688 216.136719 286.464844 C 214.28125 286.960938 212.394531 287.285156 210.480469 287.4375 C 210.335938 287.449219 210.269531 287.527344 210.28125 287.671875 C 210.496094 292.117188 211.390625 296.425781 212.96875 300.585938 C 212.96875 300.601562 212.976562 300.605469 212.992188 300.601562 Z M 165.136719 287.375 L 159.558594 286.625 C 159.472656 286.625 159.4375 286.648438 159.449219 286.730469 C 159.730469 291.441406 160.816406 295.953125 162.714844 300.277344 C 162.746094 300.34375 162.796875 300.359375 162.863281 300.324219 C 162.890625 300.3125 162.910156 300.289062 162.917969 300.257812 C 164.242188 296.121094 165.027344 291.882812 165.277344 287.542969 C 165.296875 287.433594 165.25 287.375 165.136719 287.375 Z M 175.035156 289.007812 C 172.625 288.890625 170.285156 288.414062 168.019531 287.582031 C 167.929688 287.550781 167.886719 287.582031 167.890625 287.679688 C 167.90625 292.726562 169.117188 297.472656 171.519531 301.910156 C 171.5625 301.984375 171.625 302.03125 171.707031 302.050781 C 171.789062 302.070312 171.863281 302.058594 171.9375 302.019531 C 171.984375 301.988281 172.023438 301.945312 172.050781 301.898438 C 174.175781 297.917969 175.222656 293.675781 175.191406 289.167969 C 175.191406 289.0625 175.140625 289.015625 175.035156 289.027344 Z M 204.179688 302.015625 C 205.386719 299.832031 206.292969 297.53125 206.902344 295.109375 C 207.507812 292.691406 207.792969 290.234375 207.757812 287.738281 C 207.757812 287.617188 207.710938 287.585938 207.601562 287.640625 C 205.351562 288.453125 203.035156 288.941406 200.652344 289.113281 C 200.523438 289.117188 200.464844 289.183594 200.484375 289.3125 C 200.570312 293.664062 201.605469 297.78125 203.589844 301.65625 C 203.65625 301.808594 203.75 301.941406 203.867188 302.058594 C 203.972656 302.152344 204.070312 302.148438 204.164062 302.042969 Z M 197.671875 289.5 C 194.917969 290.375 192.140625 290.464844 189.335938 289.773438 C 189.207031 289.742188 189.136719 289.789062 189.136719 289.925781 C 189.011719 296.175781 190.277344 302.136719 192.929688 307.800781 C 192.976562 307.902344 193.03125 307.90625 193.085938 307.800781 C 194.625 305.019531 195.796875 302.089844 196.601562 299.015625 C 197.40625 295.9375 197.820312 292.8125 197.839844 289.632812 C 197.851562 289.535156 197.796875 289.488281 197.679688 289.519531 Z M 186.480469 289.914062 C 183.617188 290.480469 180.78125 290.378906 177.96875 289.609375 C 177.832031 289.574219 177.773438 289.625 177.78125 289.765625 C 177.90625 292.957031 178.394531 296.09375 179.25 299.175781 C 180.101562 302.253906 181.300781 305.195312 182.84375 307.996094 C 182.894531 308.074219 182.941406 308.070312 182.976562 307.996094 C 185.496094 302.289062 186.726562 296.320312 186.671875 290.082031 C 186.6875 289.960938 186.625 289.910156 186.496094 289.9375 Z M 186.480469 289.914062 " fill-opacity="1" fill-rule="nonzero"/><g clip-path="url(#7e876446f1)"><g clip-path="url(#9e4f3482b7)"><path fill="#000000" d="M 132.042969 201.539062 L 244.726562 201.539062 L 244.726562 312.917969 L 132.042969 312.917969 Z M 132.042969 201.539062 " fill-opacity="1" fill-rule="nonzero"/></g></g><path fill="#ffffff" d="M 271.179688 141.394531 C 271.1875 141.359375 271.175781 141.335938 271.144531 141.320312 C 271.113281 141.304688 271.089844 141.308594 271.066406 141.335938 C 265.988281 146.632812 263.488281 152.539062 264.816406 159.84375 C 266.070312 164.882812 268.195312 169.523438 271.199219 173.761719 C 274.859375 179.59375 271.59375 183.726562 270.746094 189.292969 C 270.230469 192.679688 273.058594 194.449219 275.148438 196.519531 C 280.910156 202.214844 285.222656 210.722656 280.125 218.492188 C 278.757812 220.578125 276.453125 223.890625 273.210938 228.429688 C 271.023438 231.511719 268.3125 235.011719 264.914062 236.347656 C 260.941406 237.902344 256.910156 236.441406 253.152344 234.90625 C 247.125 232.445312 240.390625 229.867188 234.789062 234.644531 C 227.5625 240.792969 227.808594 254.167969 228 262.921875 C 228.0625 265.734375 227.960938 268.542969 227.691406 271.34375 C 227.511719 272.605469 227.679688 273.816406 228.195312 274.980469 C 228.214844 275.042969 228.257812 275.058594 228.316406 275.035156 C 228.335938 275.027344 228.351562 275.015625 228.359375 275 C 228.578125 274.625 228.742188 274.144531 228.949219 273.808594 C 235.445312 263.449219 238.148438 250.542969 238.765625 238.234375 C 238.789062 237.917969 238.890625 237.632812 239.074219 237.375 C 239.253906 237.117188 239.488281 236.921875 239.773438 236.792969 C 240.316406 236.550781 240.882812 236.386719 241.472656 236.300781 C 242.0625 236.21875 242.652344 236.214844 243.242188 236.289062 C 243.832031 236.367188 244.402344 236.523438 244.949219 236.757812 C 245.496094 236.992188 246 237.296875 246.464844 237.667969 C 246.757812 237.828125 246.980469 238.058594 247.132812 238.359375 C 247.28125 238.65625 247.332031 238.972656 247.285156 239.304688 C 245.667969 251.15625 244.867188 263.066406 244.890625 275.027344 C 244.980469 280.214844 247.777344 284.503906 248.3125 289.625 C 248.910156 295.355469 245.273438 299.882812 240.386719 302.28125 C 236.640625 304.117188 232.582031 306.03125 229.21875 307.921875 C 221.394531 312.339844 214.128906 317.542969 207.421875 323.523438 C 203.40625 327.085938 193.90625 323.6875 189.273438 322.582031 C 188.324219 322.414062 187.378906 322.441406 186.4375 322.660156 C 183.445312 323.390625 180.4375 324.050781 177.417969 324.644531 C 174.46875 325.226562 170.769531 325.585938 168.507812 323.503906 C 161.996094 317.492188 154.851562 312.363281 147.070312 308.117188 C 144.46875 306.695312 140.847656 305.003906 137.714844 303.464844 C 133.269531 301.273438 128.332031 298.644531 127.226562 293.300781 C 127.003906 291.476562 127.042969 289.660156 127.335938 287.847656 C 127.632812 286.03125 128.171875 284.296875 128.960938 282.636719 C 130.101562 279.675781 130.652344 276.609375 130.613281 273.4375 C 130.5625 265.058594 130.050781 256.710938 129.078125 248.390625 C 128.726562 245.378906 128.390625 242.371094 128.0625 239.359375 C 127.785156 236.761719 136.546875 234.046875 136.769531 238.921875 C 137.355469 248.035156 139.253906 256.871094 142.460938 265.421875 C 143.640625 268.707031 145.214844 271.789062 147.183594 274.671875 C 147.226562 274.734375 147.285156 274.773438 147.359375 274.785156 C 147.433594 274.800781 147.503906 274.785156 147.566406 274.742188 C 147.613281 274.710938 147.648438 274.667969 147.667969 274.617188 C 148 273.769531 148.128906 272.894531 148.050781 271.988281 C 147.769531 267.941406 147.625 263.890625 147.613281 259.839844 C 147.703125 255.363281 147.445312 250.910156 146.839844 246.476562 C 145.378906 237.617188 139.992188 230.050781 129.796875 232.394531 C 125.128906 233.472656 120.886719 236.199219 116.121094 236.878906 C 109.746094 237.78125 106.703125 233.972656 103.277344 229.449219 C 100.261719 225.589844 97.480469 221.566406 94.929688 217.386719 C 89.96875 208.886719 96.921875 198.921875 103.519531 193.730469 C 106.667969 191.261719 103.558594 184.203125 103.058594 181.515625 C 102.835938 180.183594 102.863281 178.855469 103.136719 177.535156 C 103.414062 176.210938 103.917969 174.984375 104.65625 173.851562 C 107.871094 168.007812 111.71875 162.207031 111.382812 155.390625 C 111.214844 152.761719 110.578125 150.25 109.472656 147.859375 C 108.363281 145.46875 106.859375 143.359375 104.964844 141.535156 C 104.898438 141.46875 104.835938 141.46875 104.769531 141.535156 C 104.742188 141.566406 104.730469 141.601562 104.734375 141.648438 C 105.300781 144.847656 105.785156 148.066406 106.191406 151.308594 C 106.484375 153.21875 106.578125 155.136719 106.476562 157.0625 C 105.71875 161.410156 104.304688 165.527344 102.230469 169.421875 C 102.179688 169.53125 102.132812 169.53125 102.085938 169.421875 C 97.566406 158.652344 95.042969 147.4375 94.519531 135.769531 C 94.382812 132.765625 94.496094 129.773438 94.867188 126.789062 C 95.285156 123.097656 95.957031 119.449219 96.878906 115.851562 C 97.804688 112.25 98.972656 108.730469 100.382812 105.289062 C 101.792969 101.851562 103.433594 98.527344 105.304688 95.316406 C 107.175781 92.101562 109.257812 89.035156 111.550781 86.109375 C 115.074219 81.773438 118.953125 77.78125 123.1875 74.132812 C 127.425781 70.488281 131.949219 67.246094 136.761719 64.40625 C 141.578125 61.566406 146.601562 59.175781 151.84375 57.234375 C 157.082031 55.292969 162.453125 53.828125 167.957031 52.84375 C 171.144531 52.222656 174.359375 51.753906 177.59375 51.429688 C 180.828125 51.109375 184.070312 50.941406 187.320312 50.921875 C 190.570312 50.90625 193.8125 51.039062 197.050781 51.324219 C 200.289062 51.609375 203.503906 52.046875 206.703125 52.632812 C 209.898438 53.21875 213.0625 53.953125 216.1875 54.835938 C 219.316406 55.71875 222.398438 56.746094 225.429688 57.917969 C 228.460938 59.089844 231.429688 60.398438 234.339844 61.847656 C 237.25 63.296875 240.085938 64.878906 242.847656 66.589844 C 245.484375 68.238281 248.023438 70.027344 250.460938 71.960938 C 252.898438 73.894531 255.21875 75.957031 257.425781 78.148438 C 259.628906 80.34375 261.703125 82.65625 263.648438 85.082031 C 265.59375 87.511719 267.394531 90.039062 269.054688 92.671875 C 270.714844 95.300781 272.222656 98.019531 273.574219 100.820312 C 274.929688 103.621094 276.121094 106.488281 277.152344 109.421875 C 278.179688 112.355469 279.042969 115.339844 279.738281 118.371094 C 280.433594 121.40625 280.953125 124.464844 281.304688 127.558594 C 281.625 130.453125 281.710938 133.359375 281.554688 136.269531 C 281.335938 141.972656 280.566406 147.597656 279.246094 153.148438 C 277.921875 158.699219 276.074219 164.070312 273.699219 169.257812 C 273.671875 169.316406 273.628906 169.332031 273.570312 169.304688 C 273.546875 169.292969 273.53125 169.277344 273.523438 169.257812 C 271.78125 166.089844 270.5 162.75 269.683594 159.226562 C 269.40625 157.34375 269.359375 155.453125 269.539062 153.554688 C 269.898438 149.457031 270.445312 145.402344 271.179688 141.394531 Z M 117.1875 198.734375 C 119.441406 206.882812 124.308594 212.578125 133.507812 211.636719 C 141.355469 210.835938 149.359375 207.09375 156.253906 203.152344 C 162.765625 199.429688 178.527344 189.003906 174.414062 179.683594 C 172.597656 175.574219 167.695312 173.550781 163.78125 172.128906 C 154.226562 168.644531 144.375 166.53125 134.230469 165.789062 C 131.726562 165.648438 129.296875 165.996094 126.9375 166.839844 C 123.078125 168.144531 120.136719 172.394531 118.695312 176.066406 C 117.238281 179.664062 116.382812 183.402344 116.125 187.28125 C 115.867188 191.15625 116.21875 194.972656 117.1875 198.734375 Z M 210.003906 172.78125 C 186.089844 182.132812 212.835938 200.09375 222.0625 204.867188 C 228.722656 208.308594 235.394531 211.277344 242.621094 211.710938 C 251.582031 212.242188 257.207031 205.335938 258.71875 197.175781 C 259.378906 193.648438 259.550781 190.097656 259.234375 186.523438 C 258.917969 182.949219 258.125 179.484375 256.855469 176.128906 C 253.941406 168.230469 249.136719 165.277344 240.550781 165.890625 C 230.019531 166.636719 219.835938 168.933594 210.003906 172.78125 Z M 174.566406 235 C 174.746094 235.484375 174.996094 235.933594 175.320312 236.339844 C 175.640625 236.746094 176.019531 237.089844 176.453125 237.375 C 176.886719 237.660156 177.355469 237.871094 177.855469 238.003906 C 178.359375 238.136719 178.867188 238.1875 179.386719 238.160156 C 181.730469 237.6875 183.523438 234.964844 185.980469 234.1875 C 186.964844 233.863281 187.96875 233.792969 188.988281 233.96875 C 190.007812 234.144531 190.925781 234.550781 191.742188 235.183594 C 193.195312 236.515625 194.847656 237.507812 196.703125 238.160156 C 198.9375 238.425781 200.617188 236.410156 201.394531 234.527344 C 202.117188 232.804688 202.554688 231.015625 202.714844 229.15625 C 202.871094 227.296875 202.742188 225.460938 202.324219 223.640625 C 200.734375 217.539062 198.585938 211.636719 195.871094 205.945312 C 194.65625 202.734375 192.808594 199.941406 190.324219 197.574219 C 184.269531 192.652344 178.1875 209.460938 176.84375 212.816406 C 173.953125 220.0625 170.878906 227.363281 174.566406 235 Z M 225.015625 259.246094 C 223.59375 260.277344 223.042969 270.808594 222.945312 272.855469 C 222.945312 272.972656 222.988281 273.011719 223.097656 272.976562 C 226.035156 272.042969 226.242188 269.851562 226.285156 266.929688 C 226.316406 264.332031 225.953125 261.789062 225.1875 259.304688 C 225.167969 259.246094 225.125 259.21875 225.058594 259.230469 Z M 149.25 268.039062 C 149.21875 268.589844 149.273438 269.132812 149.410156 269.664062 C 149.546875 270.195312 149.761719 270.695312 150.050781 271.164062 C 150.34375 271.632812 150.699219 272.042969 151.117188 272.402344 C 151.535156 272.757812 151.996094 273.046875 152.503906 273.261719 C 152.589844 273.300781 152.65625 273.273438 152.695312 273.1875 C 152.707031 273.167969 152.710938 273.144531 152.707031 273.121094 C 152.660156 268.457031 152.039062 263.875 150.839844 259.371094 C 150.8125 259.292969 150.765625 259.269531 150.6875 259.292969 C 150.652344 259.304688 150.625 259.328125 150.613281 259.363281 C 149.585938 262.167969 149.132812 265.058594 149.25 268.039062 Z M 219.535156 261.46875 C 217.386719 265.371094 217.136719 269.339844 216.601562 273.972656 C 216.546875 274.402344 216.53125 274.835938 216.554688 275.269531 C 216.5625 275.378906 216.621094 275.429688 216.730469 275.417969 C 216.746094 275.421875 216.761719 275.421875 216.777344 275.417969 L 220.261719 273.984375 C 220.382812 273.9375 220.457031 273.855469 220.492188 273.730469 C 221.058594 271.714844 221.289062 269.660156 221.183594 267.570312 C 221.078125 265.476562 220.644531 263.457031 219.882812 261.507812 C 219.839844 261.386719 219.757812 261.347656 219.636719 261.390625 C 219.59375 261.40625 219.558594 261.429688 219.535156 261.46875 Z M 154.457031 270.359375 C 154.65625 273.710938 155.453125 274.507812 158.738281 275.246094 C 158.855469 275.265625 158.925781 275.21875 158.957031 275.105469 C 158.957031 275.089844 158.957031 275.074219 158.957031 275.058594 C 159.125 270.445312 158.234375 266.050781 156.285156 261.867188 C 156.25 261.804688 156.199219 261.761719 156.128906 261.742188 C 156.0625 261.722656 155.996094 261.726562 155.933594 261.761719 C 155.875 261.792969 155.835938 261.835938 155.8125 261.898438 C 154.722656 264.613281 154.273438 267.433594 154.457031 270.359375 Z M 209.273438 277.019531 C 210.960938 277.171875 214.75 276.976562 214.722656 274.703125 C 214.789062 270.796875 213.996094 267.074219 212.34375 263.53125 C 212.304688 263.457031 212.246094 263.40625 212.164062 263.378906 C 212.085938 263.351562 212.007812 263.355469 211.929688 263.394531 C 211.871094 263.421875 211.828125 263.464844 211.796875 263.523438 C 211.492188 264.089844 211.25 264.683594 211.066406 265.300781 C 210.046875 268.691406 209.300781 272.144531 208.835938 275.65625 C 208.796875 276.011719 208.824219 276.363281 208.914062 276.710938 C 208.949219 276.914062 209.070312 277.015625 209.273438 277.019531 Z M 161.65625 276.453125 C 163.109375 276.890625 164.59375 277.125 166.113281 277.148438 C 166.226562 277.148438 166.324219 277.109375 166.40625 277.03125 C 166.488281 276.953125 166.53125 276.855469 166.535156 276.742188 C 166.308594 272.425781 165.523438 268.214844 164.171875 264.109375 C 164.132812 263.9375 164.054688 263.785156 163.9375 263.652344 C 163.824219 263.535156 163.710938 263.535156 163.597656 263.652344 C 163.582031 263.664062 163.570312 263.679688 163.558594 263.695312 C 161.824219 266.828125 160.949219 270.1875 160.929688 273.769531 C 160.871094 274.476562 160.917969 275.171875 161.074219 275.863281 C 161.152344 276.171875 161.347656 276.367188 161.65625 276.453125 Z M 168.789062 276.28125 C 168.6875 278.011719 174 278.832031 175.222656 278.933594 C 175.394531 278.972656 175.5625 278.953125 175.722656 278.882812 C 175.921875 278.71875 176.011719 278.507812 175.996094 278.253906 C 175.863281 275.722656 174.8125 265.550781 172.054688 264.566406 C 171.832031 264.484375 171.65625 264.546875 171.535156 264.75 C 169.71875 268.378906 168.804688 272.222656 168.789062 276.28125 Z M 203.347656 264.613281 C 200.316406 267.347656 199.886719 273.515625 199.542969 277.707031 C 199.511719 278.089844 199.597656 278.449219 199.796875 278.777344 C 199.84375 278.863281 199.917969 278.90625 200.015625 278.90625 C 202.257812 278.859375 204.363281 278.296875 206.332031 277.214844 C 206.449219 277.15625 206.507812 277.0625 206.511719 276.929688 C 206.671875 273.863281 205.753906 266.671875 203.824219 264.632812 C 203.757812 264.570312 203.679688 264.535156 203.589844 264.53125 C 203.496094 264.527344 203.417969 264.554688 203.347656 264.613281 Z M 178.84375 278.988281 C 179.964844 279.613281 181.167969 279.980469 182.445312 280.089844 C 183.722656 280.199219 184.96875 280.039062 186.179688 279.613281 C 186.375 279.546875 186.472656 279.40625 186.464844 279.199219 C 186.332031 275.945312 185 267.011719 181.894531 265.359375 C 181.816406 265.3125 181.730469 265.300781 181.636719 265.320312 C 179.609375 265.742188 178.601562 275.175781 178.507812 277.464844 C 178.476562 278.078125 178.042969 278.484375 178.84375 278.988281 Z M 189.542969 279.738281 C 190.804688 280.089844 192.089844 280.175781 193.386719 279.996094 C 194.6875 279.816406 195.894531 279.382812 197.015625 278.699219 C 197.15625 278.617188 197.222656 278.496094 197.210938 278.332031 C 197.03125 274.265625 196.332031 270.289062 195.109375 266.40625 C 194.136719 263.339844 191.628906 267.804688 191.269531 268.730469 C 189.941406 272.125 189.25 275.644531 189.199219 279.289062 C 189.195312 279.527344 189.304688 279.675781 189.535156 279.738281 Z M 224.6875 286.980469 C 226.074219 282.851562 226.519531 278.621094 226.03125 274.292969 C 226.019531 274.179688 225.957031 274.128906 225.84375 274.136719 C 225.804688 274.140625 225.769531 274.160156 225.742188 274.1875 C 224.945312 274.96875 224.011719 275.511719 222.941406 275.808594 C 222.839844 275.839844 222.777344 275.902344 222.746094 276 C 222.609375 276.5 222.855469 276.90625 222.867188 277.242188 C 223.011719 280.546875 223.53125 283.792969 224.425781 286.976562 C 224.503906 287.261719 224.585938 287.265625 224.679688 286.980469 Z M 152.847656 275.761719 L 150.015625 274.710938 C 149.980469 274.695312 149.949219 274.691406 149.914062 274.710938 C 149.882812 274.730469 149.863281 274.757812 149.863281 274.796875 C 149.25 278.871094 149.617188 282.851562 150.96875 286.746094 C 151.027344 286.964844 151.15625 287.011719 151.351562 286.910156 C 152.175781 283.328125 152.734375 279.707031 153.027344 276.046875 C 153.050781 275.890625 152.984375 275.796875 152.832031 275.761719 Z M 219.390625 290.027344 C 220.722656 286.953125 221.285156 283.746094 221.078125 280.402344 C 221.011719 279.304688 220.949219 278.195312 220.886719 277.070312 C 220.886719 276.941406 220.816406 276.902344 220.699219 276.949219 L 216.847656 278.546875 C 216.757812 278.578125 216.714844 278.644531 216.726562 278.738281 C 217.109375 282.722656 217.902344 286.621094 219.105469 290.4375 C 219.113281 290.472656 219.136719 290.492188 219.167969 290.5 C 219.203125 290.507812 219.230469 290.496094 219.25 290.46875 C 219.34375 290.332031 219.3125 290.175781 219.375 290.027344 Z M 158.722656 278.324219 L 154.949219 277.085938 C 154.859375 277.058594 154.808594 277.085938 154.796875 277.183594 C 154.441406 279.449219 154.40625 281.71875 154.691406 283.996094 C 154.976562 286.269531 155.570312 288.460938 156.476562 290.566406 C 156.492188 290.597656 156.519531 290.609375 156.554688 290.597656 C 156.570312 290.585938 156.578125 290.574219 156.582031 290.554688 C 157.664062 286.636719 158.441406 282.65625 158.917969 278.621094 C 158.941406 278.453125 158.875 278.355469 158.707031 278.324219 Z M 211.359375 292.449219 C 213.242188 288.269531 214.273438 283.890625 214.453125 279.308594 C 214.46875 279.191406 214.417969 279.148438 214.304688 279.179688 C 212.558594 279.644531 210.789062 279.953125 208.988281 280.097656 C 208.855469 280.105469 208.792969 280.179688 208.804688 280.316406 C 209.003906 284.496094 209.84375 288.542969 211.328125 292.460938 C 211.328125 292.472656 211.335938 292.476562 211.347656 292.472656 Z M 166.398438 280.035156 L 161.15625 279.328125 C 161.078125 279.328125 161.042969 279.351562 161.054688 279.429688 C 161.316406 283.859375 162.339844 288.101562 164.121094 292.167969 C 164.152344 292.230469 164.199219 292.246094 164.261719 292.210938 C 164.289062 292.199219 164.304688 292.179688 164.3125 292.152344 C 165.554688 288.257812 166.292969 284.273438 166.53125 280.195312 C 166.546875 280.089844 166.503906 280.035156 166.398438 280.035156 Z M 175.695312 281.570312 C 173.429688 281.457031 171.234375 281.011719 169.105469 280.230469 C 169.019531 280.199219 168.976562 280.230469 168.984375 280.320312 C 168.996094 285.066406 170.132812 289.527344 172.394531 293.703125 C 172.433594 293.773438 172.492188 293.816406 172.566406 293.835938 C 172.644531 293.855469 172.714844 293.84375 172.785156 293.804688 C 172.832031 293.777344 172.867188 293.738281 172.890625 293.691406 C 174.890625 289.949219 175.871094 285.960938 175.84375 281.722656 C 175.84375 281.621094 175.792969 281.578125 175.695312 281.585938 Z M 203.074219 293.800781 C 204.207031 291.75 205.058594 289.585938 205.628906 287.308594 C 206.199219 285.035156 206.464844 282.722656 206.433594 280.378906 C 206.433594 280.265625 206.390625 280.234375 206.285156 280.285156 C 204.175781 281.050781 202 281.507812 199.757812 281.667969 C 199.636719 281.671875 199.585938 281.738281 199.601562 281.855469 C 199.683594 285.949219 200.65625 289.820312 202.519531 293.464844 C 202.582031 293.609375 202.667969 293.734375 202.78125 293.84375 C 202.878906 293.929688 202.96875 293.925781 203.054688 293.828125 Z M 196.957031 282.035156 C 194.371094 282.855469 191.761719 282.941406 189.128906 282.289062 C 189.007812 282.257812 188.941406 282.304688 188.941406 282.433594 C 188.824219 288.3125 190.011719 293.914062 192.503906 299.242188 C 192.550781 299.339844 192.597656 299.339844 192.652344 299.242188 C 194.097656 296.625 195.199219 293.871094 195.953125 290.980469 C 196.710938 288.089844 197.097656 285.148438 197.117188 282.160156 C 197.128906 282.066406 197.078125 282.023438 196.96875 282.050781 Z M 186.445312 282.425781 C 183.757812 282.957031 181.089844 282.859375 178.449219 282.136719 C 178.324219 282.105469 178.265625 282.152344 178.277344 282.28125 C 178.507812 288.371094 180.09375 294.085938 183.027344 299.425781 C 183.078125 299.5 183.121094 299.496094 183.15625 299.425781 C 185.523438 294.058594 186.679688 288.445312 186.625 282.582031 C 186.640625 282.46875 186.582031 282.417969 186.460938 282.445312 Z M 186.445312 282.425781 " fill-opacity="1" fill-rule="nonzero"/></svg>