<svg xmlns="http://www.w3.org/2000/svg" xmlns:xlink="http://www.w3.org/1999/xlink" width="500" zoomAndPan="magnify" viewBox="0 0 375 374.999991" height="500" preserveAspectRatio="xMidYMid meet" version="1.0"><defs><clipPath id="59e6bc7dd7"><path d="M 5.066406 5.066406 L 367.128906 5.066406 L 367.128906 367.128906 L 5.066406 367.128906 Z M 5.066406 5.066406 " clip-rule="nonzero"/></clipPath><clipPath id="9a03e97f3b"><path d="M 186.097656 5.066406 L 367.128906 186.097656 L 186.097656 367.128906 L 5.066406 186.097656 Z M 186.097656 5.066406 " clip-rule="nonzero"/></clipPath><clipPath id="ed87d72abd"><path d="M 124.75 140.1875 L 248.992188 140.1875 L 248.992188 232.378906 L 124.75 232.378906 Z M 124.75 140.1875 " clip-rule="nonzero"/></clipPath><clipPath id="8d26613d75"><path d="M 186.746094 140.1875 C 152.507812 140.1875 124.75 160.828125 124.75 186.285156 C 124.75 211.742188 152.507812 232.378906 186.746094 232.378906 C 220.988281 232.378906 248.742188 211.742188 248.742188 186.285156 C 248.742188 160.828125 220.988281 140.1875 186.746094 140.1875 Z M 186.746094 140.1875 " clip-rule="nonzero"/></clipPath><clipPath id="3a158564d0"><path d="M 140.652344 197.789062 L 232.992188 197.789062 L 232.992188 289.0625 L 140.652344 289.0625 Z M 140.652344 197.789062 " clip-rule="nonzero"/></clipPath><clipPath id="161f47e81b"><path d="M 186.746094 197.789062 C 161.289062 197.789062 140.652344 218.222656 140.652344 243.425781 C 140.652344 268.628906 161.289062 289.0625 186.746094 289.0625 C 212.203125 289.0625 232.84375 268.628906 232.84375 243.425781 C 232.84375 218.222656 212.203125 197.789062 186.746094 197.789062 Z M 186.746094 197.789062 " clip-rule="nonzero"/></clipPath></defs><g clip-path="url(#59e6bc7dd7)"><g clip-path="url(#9a03e97f3b)"><path fill="#ffbd59" d="M 5.066406 5.066406 L 367.128906 5.066406 L 367.128906 367.128906 L 5.066406 367.128906 Z M 5.066406 5.066406 " fill-opacity="1" fill-rule="nonzero"/><path stroke-linecap="butt" transform="matrix(0.75, 0, 0, 0.75, 5.066056, 5.066051)" fill="none" stroke-linejoin="miter" d="M 241.375483 0.000473097 L 482.750499 241.375489 L 241.375483 482.750505 L 0.000467097 241.375489 Z M 241.375483 0.000473097 " stroke="#000000" stroke-width="8" stroke-opacity="1" stroke-miterlimit="4"/></g></g><g clip-path="url(#ed87d72abd)"><g clip-path="url(#8d26613d75)"><path fill="#000000" d="M 124.75 140.1875 L 248.632812 140.1875 L 248.632812 232.378906 L 124.75 232.378906 Z M 124.75 140.1875 " fill-opacity="1" fill-rule="nonzero"/></g></g><path fill="#000000" d="M 259.183594 147.433594 C 259.191406 147.402344 259.179688 147.382812 259.15625 147.367188 C 259.128906 147.355469 259.105469 147.359375 259.085938 147.382812 C 254.65625 152.003906 252.476562 157.160156 253.632812 163.535156 C 254.726562 167.933594 256.582031 171.980469 259.203125 175.679688 C 262.394531 180.769531 259.542969 184.375 258.804688 189.234375 C 258.359375 192.191406 260.824219 193.734375 262.644531 195.542969 C 267.671875 200.511719 271.433594 207.9375 266.988281 214.71875 C 265.796875 216.539062 263.785156 219.429688 260.957031 223.390625 C 259.046875 226.078125 256.683594 229.136719 253.71875 230.300781 C 250.253906 231.65625 246.734375 230.382812 243.457031 229.042969 C 238.199219 226.894531 232.324219 224.644531 227.4375 228.8125 C 221.132812 234.179688 221.347656 245.851562 221.515625 253.492188 C 221.570312 255.945312 221.480469 258.398438 221.246094 260.839844 C 221.089844 261.941406 221.234375 263 221.683594 264.015625 C 221.703125 264.070312 221.738281 264.085938 221.792969 264.0625 C 221.808594 264.058594 221.820312 264.046875 221.828125 264.03125 C 222.019531 263.703125 222.164062 263.285156 222.34375 262.992188 C 228.007812 253.953125 230.367188 242.691406 230.90625 231.945312 C 230.929688 231.671875 231.019531 231.421875 231.175781 231.195312 C 231.332031 230.972656 231.535156 230.800781 231.785156 230.6875 C 232.261719 230.476562 232.753906 230.335938 233.269531 230.261719 C 233.785156 230.1875 234.296875 230.183594 234.8125 230.25 C 235.328125 230.316406 235.824219 230.453125 236.300781 230.65625 C 236.777344 230.863281 237.21875 231.125 237.625 231.453125 C 237.878906 231.59375 238.074219 231.792969 238.207031 232.054688 C 238.335938 232.316406 238.382812 232.589844 238.339844 232.878906 C 236.929688 243.222656 236.230469 253.617188 236.25 264.054688 C 236.328125 268.582031 238.769531 272.328125 239.234375 276.792969 C 239.757812 281.796875 236.585938 285.746094 232.320312 287.84375 C 229.054688 289.445312 225.511719 291.113281 222.578125 292.761719 C 215.75 296.621094 209.414062 301.160156 203.5625 306.378906 C 200.058594 309.488281 191.773438 306.523438 187.730469 305.558594 C 186.902344 305.414062 186.078125 305.433594 185.257812 305.625 C 182.644531 306.265625 180.023438 306.839844 177.390625 307.355469 C 174.816406 307.867188 171.585938 308.179688 169.617188 306.363281 C 163.933594 301.113281 157.699219 296.636719 150.914062 292.933594 C 148.640625 291.691406 145.484375 290.21875 142.753906 288.871094 C 138.871094 286.960938 134.566406 284.667969 133.601562 280.003906 C 133.207031 276.753906 133.710938 273.652344 135.113281 270.695312 C 136.109375 268.113281 136.589844 265.4375 136.554688 262.667969 C 136.511719 255.355469 136.066406 248.070312 135.214844 240.808594 C 134.910156 238.183594 134.613281 235.554688 134.328125 232.929688 C 134.085938 230.660156 141.730469 228.292969 141.925781 232.546875 C 142.4375 240.5 144.09375 248.210938 146.894531 255.675781 C 147.921875 258.539062 149.296875 261.230469 151.011719 263.746094 C 151.101562 263.878906 151.214844 263.898438 151.34375 263.808594 C 151.386719 263.78125 151.417969 263.742188 151.433594 263.695312 C 151.722656 262.957031 151.835938 262.195312 151.765625 261.402344 C 151.523438 257.871094 151.398438 254.335938 151.386719 250.800781 C 151.464844 246.894531 151.242188 243.007812 150.710938 239.140625 C 149.4375 231.410156 144.738281 224.804688 135.84375 226.851562 C 131.769531 227.792969 128.070312 230.171875 123.914062 230.761719 C 118.351562 231.550781 115.699219 228.226562 112.707031 224.277344 C 110.078125 220.910156 107.648438 217.402344 105.425781 213.753906 C 101.097656 206.335938 107.164062 197.636719 112.917969 193.109375 C 115.664062 190.953125 112.953125 184.792969 112.519531 182.449219 C 112.324219 181.285156 112.34375 180.125 112.585938 178.972656 C 112.824219 177.816406 113.265625 176.746094 113.910156 175.757812 C 116.714844 170.660156 120.074219 165.597656 119.777344 159.648438 C 119.632812 157.351562 119.078125 155.164062 118.109375 153.078125 C 117.144531 150.992188 115.835938 149.148438 114.179688 147.554688 C 114.121094 147.5 114.066406 147.5 114.011719 147.554688 C 113.984375 147.582031 113.972656 147.617188 113.980469 147.652344 C 114.472656 150.445312 114.894531 153.257812 115.25 156.085938 C 115.503906 157.75 115.585938 159.425781 115.5 161.109375 C 114.839844 164.902344 113.605469 168.496094 111.792969 171.894531 C 111.75 171.988281 111.707031 171.988281 111.667969 171.894531 C 107.722656 162.496094 105.523438 152.707031 105.066406 142.523438 C 104.949219 139.90625 105.046875 137.292969 105.371094 134.6875 C 106.105469 128.210938 107.707031 121.957031 110.179688 115.925781 C 112.65625 109.894531 115.902344 104.3125 119.925781 99.1875 C 123 95.402344 126.382812 91.917969 130.078125 88.734375 C 133.773438 85.550781 137.722656 82.722656 141.921875 80.246094 C 146.121094 77.769531 150.503906 75.679688 155.078125 73.984375 C 159.648438 72.292969 164.332031 71.015625 169.132812 70.15625 C 174.710938 69.066406 180.339844 68.507812 186.023438 68.476562 C 191.707031 68.445312 197.34375 68.945312 202.933594 69.96875 C 208.523438 70.996094 213.96875 72.535156 219.273438 74.582031 C 224.574219 76.628906 229.640625 79.152344 234.46875 82.152344 C 236.769531 83.589844 238.984375 85.152344 241.109375 86.835938 C 243.238281 88.523438 245.261719 90.324219 247.183594 92.238281 C 249.109375 94.152344 250.917969 96.171875 252.613281 98.289062 C 254.3125 100.410156 255.882812 102.617188 257.332031 104.914062 C 258.777344 107.207031 260.09375 109.578125 261.273438 112.023438 C 262.457031 114.464844 263.496094 116.96875 264.394531 119.53125 C 265.292969 122.09375 266.046875 124.695312 266.652344 127.34375 C 267.257812 129.988281 267.710938 132.660156 268.015625 135.355469 C 268.296875 137.886719 268.371094 140.421875 268.234375 142.960938 C 267.851562 153.011719 265.570312 162.605469 261.382812 171.75 C 261.359375 171.800781 261.320312 171.816406 261.269531 171.789062 C 261.25 171.78125 261.238281 171.769531 261.226562 171.75 C 259.707031 168.988281 258.589844 166.070312 257.878906 162.996094 C 257.636719 161.351562 257.597656 159.703125 257.753906 158.046875 C 258.066406 154.46875 258.542969 150.933594 259.183594 147.433594 Z M 124.84375 197.476562 C 126.808594 204.585938 131.054688 209.554688 139.078125 208.734375 C 145.925781 208.035156 152.910156 204.769531 158.921875 201.332031 C 164.605469 198.082031 178.355469 188.984375 174.765625 180.847656 C 173.179688 177.261719 168.90625 175.496094 165.492188 174.253906 C 157.15625 171.214844 148.5625 169.371094 139.710938 168.722656 C 137.527344 168.597656 135.40625 168.90625 133.347656 169.640625 C 129.984375 170.777344 127.414062 174.488281 126.160156 177.691406 C 124.886719 180.832031 124.140625 184.09375 123.914062 187.476562 C 123.691406 190.859375 124 194.191406 124.84375 197.476562 Z M 205.816406 174.824219 C 184.953125 182.984375 208.285156 198.660156 216.335938 202.828125 C 222.144531 205.832031 227.96875 208.421875 234.269531 208.796875 C 242.089844 209.265625 246.996094 203.238281 248.3125 196.113281 C 248.890625 193.035156 249.039062 189.9375 248.765625 186.816406 C 248.488281 183.699219 247.796875 180.675781 246.6875 177.746094 C 244.144531 170.851562 239.953125 168.273438 232.464844 168.8125 C 223.277344 169.460938 214.394531 171.46875 205.816406 174.824219 Z M 174.902344 229.121094 C 175.058594 229.546875 175.277344 229.9375 175.558594 230.292969 C 175.839844 230.648438 176.167969 230.949219 176.546875 231.195312 C 176.925781 231.445312 177.332031 231.628906 177.769531 231.746094 C 178.207031 231.863281 178.652344 231.90625 179.105469 231.878906 C 181.152344 231.46875 182.714844 229.09375 184.859375 228.414062 C 185.714844 228.132812 186.589844 228.070312 187.480469 228.222656 C 188.371094 228.378906 189.171875 228.730469 189.886719 229.285156 C 191.152344 230.445312 192.59375 231.3125 194.210938 231.882812 C 196.160156 232.113281 197.625 230.351562 198.304688 228.710938 C 198.933594 227.210938 199.316406 225.648438 199.457031 224.023438 C 199.59375 222.402344 199.480469 220.796875 199.113281 219.210938 C 197.730469 213.882812 195.855469 208.734375 193.488281 203.765625 C 192.425781 200.964844 190.8125 198.527344 188.644531 196.460938 C 183.367188 192.167969 178.058594 206.835938 176.886719 209.761719 C 174.367188 216.085938 171.683594 222.460938 174.902344 229.121094 Z M 218.910156 250.28125 C 217.671875 251.183594 217.191406 260.375 217.105469 262.160156 C 217.105469 262.261719 217.144531 262.296875 217.238281 262.265625 C 219.800781 261.449219 219.980469 259.539062 220.019531 256.988281 C 220.046875 254.71875 219.726562 252.503906 219.0625 250.335938 C 219.042969 250.28125 219.007812 250.261719 218.949219 250.269531 Z M 152.816406 257.957031 C 152.789062 258.4375 152.835938 258.910156 152.953125 259.375 C 153.074219 259.839844 153.261719 260.277344 153.515625 260.683594 C 153.769531 261.09375 154.078125 261.453125 154.441406 261.765625 C 154.808594 262.078125 155.210938 262.324219 155.652344 262.515625 C 155.730469 262.546875 155.785156 262.527344 155.820312 262.449219 C 155.828125 262.433594 155.832031 262.414062 155.832031 262.390625 C 155.789062 258.324219 155.246094 254.324219 154.199219 250.394531 C 154.179688 250.328125 154.136719 250.304688 154.066406 250.324219 C 154.035156 250.335938 154.015625 250.355469 154.003906 250.386719 C 153.105469 252.832031 152.710938 255.355469 152.816406 257.957031 Z M 214.128906 252.222656 C 212.257812 255.628906 212.039062 259.09375 211.574219 263.136719 C 211.523438 263.511719 211.507812 263.890625 211.527344 264.265625 C 211.535156 264.363281 211.585938 264.40625 211.683594 264.398438 C 211.695312 264.402344 211.710938 264.402344 211.722656 264.398438 L 214.765625 263.144531 C 214.867188 263.105469 214.9375 263.03125 214.964844 262.925781 C 215.457031 261.164062 215.660156 259.371094 215.566406 257.546875 C 215.476562 255.722656 215.097656 253.957031 214.433594 252.257812 C 214.394531 252.152344 214.324219 252.117188 214.21875 252.15625 C 214.179688 252.167969 214.152344 252.191406 214.128906 252.222656 Z M 157.359375 259.980469 C 157.53125 262.90625 158.226562 263.601562 161.089844 264.246094 C 161.191406 264.265625 161.257812 264.226562 161.28125 264.125 C 161.28125 264.109375 161.28125 264.097656 161.28125 264.082031 C 161.429688 260.058594 160.652344 256.222656 158.949219 252.570312 C 158.878906 252.4375 158.777344 252.40625 158.644531 252.480469 C 158.59375 252.503906 158.558594 252.542969 158.539062 252.597656 C 157.589844 254.96875 157.195312 257.429688 157.359375 259.980469 Z M 205.179688 265.796875 C 206.652344 265.925781 209.957031 265.757812 209.933594 263.773438 C 209.992188 260.363281 209.296875 257.113281 207.855469 254.023438 C 207.824219 253.957031 207.773438 253.914062 207.703125 253.890625 C 207.632812 253.867188 207.5625 253.871094 207.496094 253.90625 C 207.445312 253.929688 207.40625 253.96875 207.378906 254.015625 C 207.113281 254.511719 206.902344 255.027344 206.742188 255.566406 C 205.851562 258.527344 205.203125 261.539062 204.796875 264.605469 C 204.761719 264.914062 204.785156 265.222656 204.863281 265.523438 C 204.894531 265.703125 205 265.792969 205.179688 265.796875 Z M 163.636719 265.296875 C 164.90625 265.683594 166.199219 265.886719 167.527344 265.90625 C 167.625 265.90625 167.710938 265.875 167.78125 265.804688 C 167.851562 265.734375 167.890625 265.652344 167.890625 265.554688 C 167.695312 261.785156 167.007812 258.109375 165.832031 254.527344 C 165.796875 254.375 165.730469 254.242188 165.625 254.128906 C 165.527344 254.027344 165.429688 254.027344 165.332031 254.128906 C 165.316406 254.140625 165.308594 254.152344 165.296875 254.167969 C 163.785156 256.902344 163.019531 259.832031 163.003906 262.960938 C 162.953125 263.574219 162.996094 264.183594 163.128906 264.785156 C 163.199219 265.054688 163.367188 265.226562 163.636719 265.296875 Z M 169.859375 265.148438 C 169.773438 266.660156 174.40625 267.375 175.472656 267.464844 C 175.625 267.5 175.769531 267.484375 175.910156 267.421875 C 176.082031 267.277344 176.160156 267.09375 176.148438 266.871094 C 176.03125 264.664062 175.113281 255.785156 172.707031 254.925781 C 172.511719 254.855469 172.363281 254.910156 172.253906 255.085938 C 170.671875 258.253906 169.875 261.609375 169.859375 265.148438 Z M 200.007812 254.96875 C 197.363281 257.351562 196.988281 262.738281 196.691406 266.394531 C 196.664062 266.730469 196.734375 267.039062 196.910156 267.328125 C 196.953125 267.402344 197.015625 267.441406 197.101562 267.441406 C 199.058594 267.398438 200.894531 266.910156 202.613281 265.964844 C 202.714844 265.914062 202.765625 265.832031 202.769531 265.71875 C 202.90625 263.042969 202.105469 256.765625 200.421875 254.988281 C 200.367188 254.929688 200.300781 254.898438 200.21875 254.894531 C 200.140625 254.894531 200.070312 254.917969 200.007812 254.96875 Z M 178.632812 267.515625 C 179.609375 268.058594 180.65625 268.378906 181.773438 268.472656 C 182.890625 268.570312 183.972656 268.429688 185.03125 268.058594 C 185.203125 268 185.285156 267.878906 185.277344 267.695312 C 185.164062 264.855469 184.003906 257.058594 181.292969 255.617188 C 181.222656 255.578125 181.148438 255.566406 181.070312 255.585938 C 179.296875 255.953125 178.421875 264.1875 178.339844 266.183594 C 178.308594 266.71875 177.933594 267.074219 178.632812 267.515625 Z M 187.964844 268.167969 C 189.066406 268.476562 190.1875 268.550781 191.320312 268.390625 C 192.453125 268.234375 193.507812 267.855469 194.484375 267.261719 C 194.605469 267.1875 194.664062 267.082031 194.65625 266.941406 C 194.5 263.390625 193.886719 259.921875 192.824219 256.53125 C 191.972656 253.855469 189.785156 257.753906 189.472656 258.5625 C 188.3125 261.523438 187.710938 264.59375 187.667969 267.777344 C 187.660156 267.984375 187.757812 268.113281 187.957031 268.167969 Z M 218.625 274.488281 C 219.835938 270.882812 220.226562 267.195312 219.796875 263.414062 C 219.789062 263.316406 219.734375 263.269531 219.632812 263.28125 C 219.597656 263.285156 219.570312 263.296875 219.542969 263.324219 C 218.851562 264.007812 218.035156 264.476562 217.101562 264.738281 C 217.015625 264.765625 216.957031 264.820312 216.933594 264.90625 C 216.8125 265.34375 217.027344 265.695312 217.039062 265.988281 C 217.164062 268.871094 217.613281 271.703125 218.394531 274.484375 C 218.464844 274.734375 218.539062 274.734375 218.617188 274.488281 Z M 155.953125 264.699219 L 153.480469 263.78125 C 153.453125 263.765625 153.421875 263.765625 153.394531 263.78125 C 153.367188 263.796875 153.351562 263.820312 153.347656 263.855469 C 152.8125 267.410156 153.136719 270.886719 154.316406 274.28125 C 154.367188 274.472656 154.476562 274.515625 154.648438 274.425781 C 155.367188 271.300781 155.851562 268.140625 156.109375 264.945312 C 156.128906 264.808594 156.074219 264.726562 155.9375 264.699219 Z M 214.003906 277.144531 C 215.167969 274.464844 215.65625 271.664062 215.476562 268.746094 C 215.417969 267.789062 215.363281 266.820312 215.308594 265.839844 C 215.308594 265.726562 215.25 265.691406 215.144531 265.734375 L 211.785156 267.128906 C 211.707031 267.15625 211.671875 267.210938 211.679688 267.296875 C 212.015625 270.773438 212.707031 274.175781 213.757812 277.503906 C 213.761719 277.535156 213.78125 277.554688 213.8125 277.558594 C 213.839844 277.566406 213.863281 277.558594 213.882812 277.53125 C 213.964844 277.410156 213.9375 277.277344 213.992188 277.144531 Z M 161.078125 266.933594 L 157.785156 265.851562 C 157.707031 265.828125 157.664062 265.851562 157.65625 265.9375 C 157.34375 267.914062 157.3125 269.898438 157.5625 271.882812 C 157.808594 273.867188 158.328125 275.78125 159.117188 277.617188 C 159.132812 277.644531 159.15625 277.652344 159.183594 277.644531 C 159.199219 277.636719 159.207031 277.625 159.210938 277.609375 C 160.152344 274.1875 160.832031 270.714844 161.246094 267.191406 C 161.269531 267.046875 161.210938 266.960938 161.066406 266.933594 Z M 207 279.261719 C 208.640625 275.613281 209.539062 271.789062 209.699219 267.792969 C 209.710938 267.691406 209.664062 267.652344 209.566406 267.679688 C 208.046875 268.085938 206.5 268.351562 204.929688 268.480469 C 204.8125 268.488281 204.757812 268.550781 204.769531 268.671875 C 204.941406 272.320312 205.675781 275.851562 206.96875 279.269531 C 206.972656 279.28125 206.976562 279.285156 206.988281 279.28125 Z M 167.773438 268.429688 L 163.203125 267.808594 C 163.132812 267.808594 163.101562 267.828125 163.113281 267.898438 C 163.339844 271.761719 164.234375 275.46875 165.785156 279.011719 C 165.8125 279.070312 165.855469 279.082031 165.910156 279.054688 C 165.933594 279.042969 165.949219 279.027344 165.953125 279 C 167.039062 275.601562 167.683594 272.125 167.886719 268.566406 C 167.90625 268.472656 167.867188 268.429688 167.773438 268.429688 Z M 175.886719 269.765625 C 173.910156 269.667969 171.992188 269.277344 170.136719 268.597656 C 170.0625 268.570312 170.023438 268.597656 170.027344 268.675781 C 170.042969 272.820312 171.035156 276.710938 173.003906 280.355469 C 173.089844 280.5 173.203125 280.527344 173.347656 280.441406 C 173.386719 280.417969 173.417969 280.386719 173.4375 280.34375 C 175.183594 277.078125 176.039062 273.597656 176.011719 269.898438 C 176.011719 269.8125 175.972656 269.773438 175.886719 269.78125 Z M 199.769531 280.441406 C 201.78125 276.796875 202.757812 272.890625 202.699219 268.726562 C 202.699219 268.625 202.664062 268.601562 202.574219 268.644531 C 200.730469 269.3125 198.832031 269.714844 196.875 269.851562 C 196.769531 269.855469 196.726562 269.910156 196.738281 270.015625 C 196.8125 273.589844 197.660156 276.964844 199.285156 280.148438 C 199.339844 280.269531 199.417969 280.382812 199.515625 280.476562 C 199.597656 280.554688 199.679688 280.550781 199.753906 280.464844 Z M 194.433594 270.171875 C 192.179688 270.890625 189.902344 270.964844 187.605469 270.394531 C 187.496094 270.367188 187.441406 270.40625 187.441406 270.519531 C 187.339844 275.648438 188.375 280.539062 190.546875 285.191406 C 190.589844 285.273438 190.628906 285.277344 190.679688 285.191406 C 191.941406 282.90625 192.898438 280.503906 193.558594 277.980469 C 194.21875 275.453125 194.554688 272.886719 194.574219 270.28125 C 194.585938 270.199219 194.539062 270.160156 194.441406 270.1875 Z M 185.261719 270.511719 C 182.917969 270.976562 180.59375 270.890625 178.285156 270.257812 C 178.179688 270.230469 178.128906 270.273438 178.136719 270.386719 C 178.339844 275.699219 179.722656 280.6875 182.28125 285.347656 C 182.324219 285.414062 182.363281 285.410156 182.394531 285.347656 C 184.457031 280.664062 185.464844 275.765625 185.421875 270.648438 C 185.433594 270.550781 185.382812 270.503906 185.277344 270.53125 Z M 185.261719 270.511719 " fill-opacity="1" fill-rule="nonzero"/><g clip-path="url(#3a158564d0)"><g clip-path="url(#161f47e81b)"><path fill="#000000" d="M 140.652344 197.789062 L 232.992188 197.789062 L 232.992188 289.0625 L 140.652344 289.0625 Z M 140.652344 197.789062 " fill-opacity="1" fill-rule="nonzero"/></g></g><path fill="#ffffff" d="M 254.675781 148.496094 C 254.679688 148.46875 254.671875 148.449219 254.644531 148.4375 C 254.621094 148.425781 254.597656 148.429688 254.582031 148.449219 C 250.417969 152.789062 248.371094 157.628906 249.457031 163.617188 C 250.484375 167.746094 252.230469 171.546875 254.691406 175.019531 C 257.691406 179.800781 255.011719 183.1875 254.316406 187.75 C 253.898438 190.527344 256.210938 191.976562 257.925781 193.671875 C 262.648438 198.339844 266.179688 205.308594 262.003906 211.679688 C 260.882812 213.386719 258.996094 216.101562 256.339844 219.820312 C 254.546875 222.347656 252.324219 225.21875 249.539062 226.3125 C 246.28125 227.585938 242.980469 226.386719 239.902344 225.128906 C 234.960938 223.113281 229.441406 221 224.851562 224.914062 C 218.929688 229.953125 219.132812 240.914062 219.289062 248.089844 C 219.339844 250.394531 219.253906 252.695312 219.035156 254.988281 C 218.890625 256.023438 219.027344 257.015625 219.449219 257.972656 C 219.464844 258.019531 219.5 258.035156 219.546875 258.015625 C 219.5625 258.007812 219.574219 258 219.582031 257.984375 C 219.761719 257.679688 219.894531 257.285156 220.066406 257.007812 C 225.390625 248.519531 227.605469 237.945312 228.113281 227.855469 C 228.132812 227.597656 228.214844 227.363281 228.363281 227.152344 C 228.511719 226.941406 228.703125 226.78125 228.9375 226.675781 C 229.382812 226.476562 229.847656 226.34375 230.332031 226.273438 C 230.8125 226.203125 231.296875 226.199219 231.78125 226.265625 C 232.261719 226.328125 232.730469 226.457031 233.179688 226.648438 C 233.625 226.839844 234.039062 227.085938 234.421875 227.394531 C 234.660156 227.523438 234.84375 227.714844 234.964844 227.957031 C 235.089844 228.203125 235.132812 228.460938 235.09375 228.734375 C 233.765625 238.445312 233.113281 248.207031 233.128906 258.007812 C 233.203125 262.257812 235.496094 265.773438 235.933594 269.96875 C 236.421875 274.667969 233.445312 278.378906 229.441406 280.34375 C 226.371094 281.847656 223.042969 283.414062 220.285156 284.964844 C 213.875 288.585938 207.921875 292.847656 202.425781 297.75 C 199.132812 300.671875 191.351562 297.886719 187.554688 296.980469 C 186.773438 296.84375 186 296.863281 185.230469 297.042969 C 182.773438 297.640625 180.3125 298.183594 177.839844 298.667969 C 175.421875 299.148438 172.390625 299.441406 170.535156 297.734375 C 165.199219 292.808594 159.34375 288.605469 152.96875 285.125 C 150.832031 283.960938 147.867188 282.574219 145.300781 281.3125 C 141.65625 279.515625 137.609375 277.363281 136.703125 272.984375 C 136.335938 269.933594 136.8125 267.019531 138.125 264.246094 C 139.0625 261.816406 139.511719 259.304688 139.480469 256.707031 C 139.441406 249.839844 139.019531 243 138.222656 236.179688 C 137.9375 233.714844 137.65625 231.246094 137.390625 228.777344 C 137.160156 226.648438 144.34375 224.425781 144.523438 228.417969 C 145.007812 235.890625 146.5625 243.128906 149.191406 250.136719 C 150.15625 252.828125 151.449219 255.355469 153.0625 257.714844 C 153.144531 257.839844 153.25 257.859375 153.375 257.773438 C 153.414062 257.75 153.441406 257.714844 153.457031 257.671875 C 153.730469 256.976562 153.832031 256.257812 153.769531 255.515625 C 153.542969 252.203125 153.421875 248.882812 153.410156 245.5625 C 153.488281 241.894531 153.277344 238.246094 152.777344 234.613281 C 151.582031 227.351562 147.167969 221.152344 138.8125 223.070312 C 134.988281 223.957031 131.511719 226.191406 127.605469 226.746094 C 122.378906 227.488281 119.886719 224.363281 117.078125 220.65625 C 114.609375 217.492188 112.328125 214.199219 110.238281 210.773438 C 106.171875 203.808594 111.871094 195.640625 117.277344 191.386719 C 119.855469 189.363281 117.308594 183.578125 116.902344 181.378906 C 116.71875 180.285156 116.738281 179.199219 116.964844 178.113281 C 117.191406 177.03125 117.605469 176.023438 118.207031 175.09375 C 120.84375 170.308594 124 165.554688 123.722656 159.96875 C 123.585938 157.8125 123.0625 155.753906 122.15625 153.796875 C 121.246094 151.835938 120.015625 150.109375 118.460938 148.609375 C 118.410156 148.558594 118.355469 148.558594 118.304688 148.609375 C 118.277344 148.636719 118.269531 148.667969 118.273438 148.703125 C 118.738281 151.328125 119.136719 153.964844 119.46875 156.621094 C 119.707031 158.1875 119.785156 159.757812 119.703125 161.339844 C 119.082031 164.898438 117.921875 168.277344 116.222656 171.464844 C 116.179688 171.554688 116.140625 171.554688 116.101562 171.464844 C 112.398438 162.640625 110.332031 153.449219 109.902344 143.890625 C 109.789062 141.429688 109.882812 138.976562 110.1875 136.53125 C 110.875 130.449219 112.382812 124.574219 114.707031 118.910156 C 117.027344 113.246094 120.082031 108.007812 123.859375 103.191406 C 126.746094 99.636719 129.925781 96.367188 133.398438 93.378906 C 136.867188 90.390625 140.574219 87.734375 144.519531 85.40625 C 148.464844 83.082031 152.585938 81.121094 156.878906 79.53125 C 161.171875 77.9375 165.574219 76.738281 170.082031 75.933594 C 175.324219 74.910156 180.613281 74.386719 185.949219 74.355469 C 191.289062 74.328125 196.582031 74.792969 201.835938 75.757812 C 207.085938 76.722656 212.203125 78.164062 217.179688 80.089844 C 222.160156 82.011719 226.917969 84.382812 231.457031 87.195312 C 233.617188 88.546875 235.699219 90.011719 237.695312 91.597656 C 239.691406 93.179688 241.59375 94.871094 243.402344 96.667969 C 245.207031 98.46875 246.910156 100.363281 248.503906 102.351562 C 250.097656 104.339844 251.574219 106.414062 252.933594 108.570312 C 254.292969 110.726562 255.527344 112.949219 256.636719 115.246094 C 257.746094 117.542969 258.722656 119.890625 259.566406 122.296875 C 260.410156 124.703125 261.117188 127.148438 261.6875 129.632812 C 262.257812 132.117188 262.683594 134.625 262.96875 137.15625 C 263.234375 139.53125 263.304688 141.914062 263.175781 144.296875 C 262.816406 153.734375 260.671875 162.746094 256.738281 171.332031 C 256.714844 171.378906 256.679688 171.390625 256.632812 171.367188 C 256.613281 171.359375 256.601562 171.347656 256.59375 171.332031 C 255.164062 168.738281 254.117188 165.996094 253.445312 163.113281 C 253.21875 161.566406 253.179688 160.019531 253.328125 158.464844 C 253.625 155.105469 254.074219 151.785156 254.675781 148.496094 Z M 128.476562 195.488281 C 130.324219 202.164062 134.3125 206.832031 141.851562 206.0625 C 148.285156 205.40625 154.84375 202.335938 160.492188 199.109375 C 165.832031 196.058594 178.746094 187.515625 175.375 179.875 C 173.886719 176.507812 169.867188 174.847656 166.664062 173.683594 C 158.832031 170.828125 150.757812 169.097656 142.445312 168.488281 C 140.394531 168.371094 138.402344 168.660156 136.46875 169.351562 C 133.304688 170.417969 130.894531 173.902344 129.714844 176.910156 C 128.519531 179.859375 127.816406 182.921875 127.605469 186.101562 C 127.394531 189.277344 127.6875 192.40625 128.476562 195.488281 Z M 204.539062 174.21875 C 184.945312 181.882812 206.863281 196.601562 214.421875 200.511719 C 219.878906 203.335938 225.347656 205.765625 231.269531 206.121094 C 238.617188 206.558594 243.226562 200.898438 244.460938 194.207031 C 245.003906 191.320312 245.144531 188.410156 244.886719 185.480469 C 244.625 182.550781 243.976562 179.710938 242.9375 176.960938 C 240.546875 170.488281 236.609375 168.066406 229.574219 168.574219 C 220.941406 169.183594 212.597656 171.066406 204.539062 174.21875 Z M 175.5 225.203125 C 175.648438 225.605469 175.851562 225.96875 176.117188 226.304688 C 176.382812 226.636719 176.691406 226.917969 177.046875 227.152344 C 177.402344 227.386719 177.785156 227.558594 178.195312 227.667969 C 178.609375 227.777344 179.027344 227.820312 179.449219 227.796875 C 181.371094 227.410156 182.839844 225.179688 184.855469 224.539062 C 185.660156 224.277344 186.480469 224.214844 187.316406 224.359375 C 188.152344 224.503906 188.90625 224.839844 189.578125 225.359375 C 190.765625 226.449219 192.121094 227.261719 193.640625 227.796875 C 195.472656 228.015625 196.847656 226.359375 197.484375 224.820312 C 198.078125 223.410156 198.4375 221.941406 198.566406 220.417969 C 198.695312 218.894531 198.589844 217.386719 198.246094 215.898438 C 196.945312 210.894531 195.183594 206.0625 192.960938 201.394531 C 191.964844 198.765625 190.449219 196.476562 188.410156 194.535156 C 183.453125 190.503906 178.464844 204.277344 177.367188 207.027344 C 175 212.964844 172.480469 218.949219 175.5 225.203125 Z M 216.84375 245.074219 C 215.679688 245.921875 215.226562 254.550781 215.144531 256.226562 C 215.144531 256.324219 215.183594 256.355469 215.273438 256.328125 C 217.679688 255.5625 217.847656 253.765625 217.882812 251.371094 C 217.910156 249.242188 217.609375 247.160156 216.984375 245.125 C 216.96875 245.074219 216.929688 245.054688 216.878906 245.0625 Z M 154.753906 252.28125 C 154.730469 252.734375 154.773438 253.175781 154.886719 253.613281 C 154.996094 254.050781 155.171875 254.460938 155.410156 254.84375 C 155.648438 255.226562 155.941406 255.5625 156.28125 255.855469 C 156.625 256.148438 157.003906 256.382812 157.417969 256.558594 C 157.492188 256.59375 157.542969 256.574219 157.578125 256.5 C 157.585938 256.484375 157.589844 256.464844 157.589844 256.445312 C 157.550781 252.625 157.039062 248.871094 156.054688 245.179688 C 156.035156 245.117188 155.996094 245.09375 155.929688 245.113281 C 155.902344 245.125 155.878906 245.144531 155.871094 245.171875 C 155.027344 247.46875 154.65625 249.839844 154.753906 252.28125 Z M 212.351562 246.898438 C 210.589844 250.097656 210.386719 253.347656 209.949219 257.144531 C 209.902344 257.496094 209.890625 257.851562 209.90625 258.207031 C 209.914062 258.296875 209.964844 258.335938 210.054688 258.328125 C 210.066406 258.332031 210.078125 258.332031 210.089844 258.328125 L 212.945312 257.15625 C 213.042969 257.117188 213.109375 257.046875 213.136719 256.945312 C 213.597656 255.292969 213.789062 253.609375 213.703125 251.898438 C 213.617188 250.183594 213.261719 248.527344 212.636719 246.929688 C 212.601562 246.832031 212.535156 246.800781 212.433594 246.832031 C 212.398438 246.84375 212.371094 246.867188 212.351562 246.898438 Z M 159.023438 254.183594 C 159.183594 256.929688 159.835938 257.582031 162.527344 258.1875 C 162.625 258.207031 162.683594 258.167969 162.707031 258.070312 C 162.707031 258.058594 162.707031 258.046875 162.707031 258.035156 C 162.84375 254.253906 162.113281 250.652344 160.515625 247.226562 C 160.449219 247.097656 160.355469 247.070312 160.230469 247.136719 C 160.183594 247.160156 160.152344 247.199219 160.132812 247.25 C 159.238281 249.476562 158.867188 251.785156 159.023438 254.183594 Z M 203.941406 259.640625 C 205.324219 259.765625 208.429688 259.605469 208.410156 257.742188 C 208.464844 254.542969 207.8125 251.488281 206.457031 248.589844 C 206.425781 248.527344 206.378906 248.484375 206.3125 248.460938 C 206.246094 248.441406 206.183594 248.445312 206.121094 248.476562 C 206.070312 248.5 206.035156 248.535156 206.007812 248.582031 C 205.757812 249.046875 205.558594 249.53125 205.410156 250.039062 C 204.574219 252.816406 203.964844 255.644531 203.582031 258.523438 C 203.550781 258.816406 203.574219 259.101562 203.648438 259.386719 C 203.675781 259.554688 203.773438 259.636719 203.941406 259.640625 Z M 164.921875 259.175781 C 166.109375 259.535156 167.328125 259.726562 168.574219 259.746094 C 168.667969 259.746094 168.746094 259.714844 168.8125 259.652344 C 168.878906 259.585938 168.914062 259.507812 168.917969 259.414062 C 168.734375 255.875 168.089844 252.425781 166.980469 249.0625 C 166.949219 248.917969 166.886719 248.792969 166.789062 248.6875 C 166.695312 248.59375 166.601562 248.59375 166.511719 248.6875 C 166.5 248.695312 166.488281 248.710938 166.480469 248.722656 C 165.058594 251.289062 164.339844 254.042969 164.324219 256.976562 C 164.277344 257.554688 164.316406 258.128906 164.441406 258.691406 C 164.507812 258.945312 164.667969 259.105469 164.921875 259.175781 Z M 170.765625 259.035156 C 170.683594 260.457031 175.035156 261.125 176.039062 261.207031 C 176.179688 261.242188 176.316406 261.226562 176.449219 261.167969 C 176.609375 261.035156 176.683594 260.863281 176.671875 260.652344 C 176.5625 258.578125 175.699219 250.242188 173.441406 249.433594 C 173.257812 249.371094 173.117188 249.421875 173.015625 249.585938 C 171.527344 252.558594 170.777344 255.710938 170.765625 259.035156 Z M 199.085938 249.476562 C 196.601562 251.714844 196.25 256.769531 195.96875 260.203125 C 195.941406 260.519531 196.011719 260.8125 196.175781 261.082031 C 196.214844 261.152344 196.273438 261.1875 196.355469 261.1875 C 198.195312 261.148438 199.917969 260.6875 201.53125 259.800781 C 201.628906 259.753906 201.675781 259.675781 201.679688 259.570312 C 201.808594 257.054688 201.058594 251.160156 199.476562 249.492188 C 199.351562 249.363281 199.222656 249.359375 199.085938 249.476562 Z M 179.007812 261.253906 C 179.925781 261.769531 180.910156 262.070312 181.957031 262.15625 C 183.003906 262.246094 184.023438 262.117188 185.015625 261.765625 C 185.179688 261.710938 185.257812 261.597656 185.25 261.425781 C 185.144531 258.761719 184.050781 251.4375 181.507812 250.085938 C 181.441406 250.046875 181.371094 250.035156 181.296875 250.054688 C 179.632812 250.398438 178.808594 258.128906 178.730469 260.003906 C 178.703125 260.507812 178.351562 260.839844 179.007812 261.253906 Z M 187.773438 261.871094 C 188.808594 262.160156 189.859375 262.226562 190.921875 262.082031 C 191.988281 261.933594 192.980469 261.578125 193.898438 261.015625 C 194.011719 260.949219 194.066406 260.851562 194.058594 260.71875 C 193.910156 257.382812 193.335938 254.125 192.335938 250.941406 C 191.539062 248.429688 189.480469 252.089844 189.1875 252.847656 C 188.097656 255.628906 187.535156 258.515625 187.492188 261.5 C 187.488281 261.695312 187.578125 261.816406 187.765625 261.871094 Z M 216.574219 267.804688 C 217.710938 264.421875 218.078125 260.953125 217.675781 257.40625 C 217.667969 257.3125 217.617188 257.269531 217.523438 257.28125 C 217.488281 257.285156 217.460938 257.296875 217.4375 257.320312 C 216.785156 257.960938 216.019531 258.40625 215.140625 258.648438 C 215.0625 258.671875 215.007812 258.726562 214.984375 258.804688 C 214.871094 259.214844 215.070312 259.546875 215.082031 259.824219 C 215.199219 262.53125 215.625 265.191406 216.359375 267.800781 C 216.421875 268.035156 216.492188 268.039062 216.566406 267.804688 Z M 157.699219 258.613281 L 155.378906 257.75 C 155.351562 257.734375 155.324219 257.734375 155.296875 257.75 C 155.269531 257.765625 155.257812 257.789062 155.253906 257.820312 C 154.753906 261.15625 155.054688 264.421875 156.164062 267.613281 C 156.210938 267.789062 156.316406 267.828125 156.476562 267.746094 C 157.152344 264.8125 157.609375 261.84375 157.851562 258.84375 C 157.867188 258.714844 157.816406 258.636719 157.6875 258.613281 Z M 212.234375 270.300781 C 213.324219 267.78125 213.785156 265.152344 213.617188 262.414062 C 213.5625 261.511719 213.507812 260.601562 213.457031 259.683594 C 213.457031 259.578125 213.402344 259.546875 213.304688 259.585938 L 210.148438 260.894531 C 210.074219 260.917969 210.042969 260.972656 210.050781 261.050781 C 210.363281 264.316406 211.011719 267.511719 212 270.636719 C 212.007812 270.664062 212.023438 270.683594 212.050781 270.6875 C 212.078125 270.695312 212.101562 270.6875 212.117188 270.664062 C 212.195312 270.550781 212.167969 270.421875 212.222656 270.300781 Z M 162.515625 260.710938 L 159.421875 259.695312 C 159.347656 259.671875 159.308594 259.695312 159.300781 259.777344 C 159.007812 261.632812 158.980469 263.492188 159.210938 265.355469 C 159.445312 267.222656 159.933594 269.015625 160.675781 270.742188 C 160.691406 270.769531 160.710938 270.777344 160.738281 270.765625 C 160.75 270.761719 160.757812 270.75 160.761719 270.734375 C 161.648438 267.523438 162.285156 264.261719 162.675781 260.953125 C 162.695312 260.816406 162.640625 260.734375 162.503906 260.710938 Z M 205.652344 272.285156 C 207.195312 268.863281 208.039062 265.273438 208.1875 261.519531 C 208.199219 261.421875 208.15625 261.386719 208.0625 261.410156 C 206.636719 261.792969 205.183594 262.042969 203.710938 262.160156 C 203.597656 262.171875 203.546875 262.230469 203.558594 262.339844 C 203.722656 265.769531 204.410156 269.085938 205.625 272.292969 C 205.628906 272.304688 205.632812 272.308594 205.644531 272.304688 Z M 168.804688 262.113281 L 164.511719 261.535156 C 164.445312 261.535156 164.417969 261.550781 164.425781 261.617188 C 164.644531 265.246094 165.480469 268.722656 166.941406 272.054688 C 166.964844 272.105469 167.003906 272.117188 167.054688 272.089844 C 167.078125 272.082031 167.089844 272.066406 167.097656 272.042969 C 168.117188 268.851562 168.722656 265.585938 168.914062 262.242188 C 168.929688 262.15625 168.894531 262.113281 168.804688 262.113281 Z M 176.425781 263.371094 C 174.570312 263.277344 172.769531 262.914062 171.023438 262.273438 C 170.953125 262.25 170.921875 262.273438 170.925781 262.347656 C 170.9375 266.238281 171.867188 269.890625 173.71875 273.3125 C 173.796875 273.449219 173.90625 273.476562 174.039062 273.394531 C 174.078125 273.371094 174.105469 273.339844 174.128906 273.304688 C 175.765625 270.238281 176.570312 266.96875 176.546875 263.492188 C 176.546875 263.414062 176.507812 263.375 176.425781 263.382812 Z M 198.863281 273.394531 C 200.75 269.972656 201.667969 266.304688 201.613281 262.394531 C 201.613281 262.300781 201.578125 262.273438 201.496094 262.316406 C 199.765625 262.941406 197.980469 263.320312 196.144531 263.449219 C 196.046875 263.457031 196 263.507812 196.015625 263.605469 C 196.082031 266.960938 196.878906 270.128906 198.40625 273.117188 C 198.457031 273.234375 198.53125 273.339844 198.621094 273.429688 C 198.699219 273.5 198.777344 273.496094 198.847656 273.417969 Z M 193.851562 263.75 C 191.730469 264.425781 189.59375 264.496094 187.433594 263.960938 C 187.332031 263.933594 187.28125 263.972656 187.28125 264.078125 C 187.183594 268.894531 188.160156 273.488281 190.199219 277.851562 C 190.238281 277.933594 190.277344 277.933594 190.320312 277.851562 C 192.730469 273.496094 193.949219 268.828125 193.980469 263.851562 C 193.992188 263.777344 193.949219 263.742188 193.859375 263.765625 Z M 185.234375 264.070312 C 183.03125 264.507812 180.847656 264.425781 178.683594 263.832031 C 178.578125 263.808594 178.53125 263.847656 178.539062 263.953125 C 178.730469 268.941406 180.03125 273.625 182.433594 278.003906 C 182.472656 278.0625 182.511719 278.0625 182.539062 278.003906 C 184.476562 273.605469 185.425781 269.003906 185.382812 264.199219 C 185.394531 264.105469 185.347656 264.066406 185.246094 264.089844 Z M 185.234375 264.070312 " fill-opacity="1" fill-rule="nonzero"/></svg>