<svg xmlns="http://www.w3.org/2000/svg" xmlns:xlink="http://www.w3.org/1999/xlink" width="500" zoomAndPan="magnify" viewBox="0 0 375 374.999991" height="500" preserveAspectRatio="xMidYMid meet" version="1.0"><defs><clipPath id="07a28c5310"><path d="M 33.308594 11.28125 L 341.558594 11.28125 L 341.558594 363.78125 L 33.308594 363.78125 Z M 33.308594 11.28125 " clip-rule="nonzero"/></clipPath><clipPath id="3c6c15012b"><path d="M 33.308594 14.683594 L 341.558594 14.683594 L 341.558594 367.183594 L 33.308594 367.183594 Z M 33.308594 14.683594 " clip-rule="nonzero"/></clipPath></defs><g clip-path="url(#07a28c5310)"><path fill="#282828" d="M 264.578125 38.445312 C 226.890625 37.710938 197.519531 18.132812 187.488281 11.277344 C 177.453125 18.132812 148.085938 37.710938 110.394531 38.445312 C 69.035156 39.421875 43.09375 29.390625 33.300781 22.78125 L 33.300781 157.386719 C 33.300781 242.554688 99.382812 338.738281 187.488281 363.699219 C 231.539062 351.21875 270.207031 320.871094 297.617188 283.179688 C 325.027344 245.492188 341.671875 199.972656 341.671875 157.386719 L 341.671875 22.78125 C 331.882812 29.390625 305.941406 39.421875 264.578125 38.445312 Z M 325.027344 157.386719 C 325.027344 195.320312 310.101562 237.660156 284.15625 273.390625 C 258.214844 309.125 223.953125 334.820312 187.488281 346.566406 C 150.777344 335.066406 116.757812 309.125 90.816406 273.636719 C 64.875 238.148438 49.945312 195.320312 49.945312 157.386719 L 49.945312 47.746094 C 67.808594 52.882812 86.410156 55.332031 105.011719 55.085938 L 110.882812 55.085938 C 136.582031 54.351562 162.769531 46.03125 187.488281 30.859375 C 212.207031 46.03125 238.390625 54.351562 264.089844 54.84375 L 269.964844 54.84375 C 288.5625 55.085938 307.164062 52.640625 325.027344 47.5 Z M 308.632812 68.546875 L 308.632812 157.386719 C 308.632812 192.140625 294.925781 230.808594 270.941406 263.601562 C 248.179688 294.683594 218.8125 317.6875 187.488281 328.945312 C 156.160156 317.6875 126.792969 294.683594 104.03125 263.601562 C 80.046875 230.808594 66.34375 191.894531 66.34375 157.386719 L 66.34375 68.546875 C 79.070312 70.75 92.039062 71.730469 105.011719 71.730469 L 111.128906 71.730469 C 138.050781 70.75 163.992188 63.40625 187.488281 50.191406 C 210.738281 63.40625 236.921875 70.75 263.84375 71.730469 L 269.964844 71.730469 C 282.933594 71.730469 295.90625 70.503906 308.632812 68.546875 Z M 308.632812 68.546875 " fill-opacity="1" fill-rule="nonzero"/></g><g clip-path="url(#3c6c15012b)"><path fill="#282828" d="M 264.578125 41.84375 C 226.890625 41.109375 197.519531 21.53125 187.488281 14.679688 C 177.453125 21.53125 148.085938 41.109375 110.394531 41.84375 C 69.035156 42.824219 43.09375 32.789062 33.300781 26.183594 L 33.300781 160.789062 C 33.300781 245.957031 99.382812 342.136719 187.488281 367.101562 C 231.539062 354.617188 270.207031 324.273438 297.617188 286.582031 C 325.027344 248.894531 341.671875 203.371094 341.671875 160.789062 L 341.671875 26.183594 C 331.882812 32.789062 305.941406 42.824219 264.578125 41.84375 Z M 325.027344 160.789062 C 325.027344 198.722656 310.101562 241.0625 284.15625 276.792969 C 258.214844 312.523438 223.953125 338.222656 187.488281 349.96875 C 150.777344 338.464844 116.757812 312.523438 90.816406 277.039062 C 64.875 241.550781 49.945312 198.722656 49.945312 160.789062 L 49.945312 51.144531 C 67.808594 56.285156 86.410156 58.730469 105.011719 58.488281 L 110.882812 58.488281 C 136.582031 57.753906 162.769531 49.433594 187.488281 34.257812 C 212.207031 49.433594 238.390625 57.753906 264.089844 58.242188 L 269.964844 58.242188 C 288.5625 58.488281 307.164062 56.039062 325.027344 50.902344 Z M 308.632812 71.949219 L 308.632812 160.789062 C 308.632812 195.539062 294.925781 234.207031 270.941406 267.003906 C 248.179688 298.085938 218.8125 321.089844 187.488281 332.347656 C 156.160156 321.089844 126.792969 298.085938 104.03125 267.003906 C 80.046875 234.207031 66.34375 195.296875 66.34375 160.789062 L 66.34375 71.949219 C 79.070312 74.152344 92.039062 75.128906 105.011719 75.128906 L 111.128906 75.128906 C 138.050781 74.152344 163.992188 66.808594 187.488281 53.59375 C 210.738281 66.808594 236.921875 74.152344 263.84375 75.128906 L 269.964844 75.128906 C 282.933594 75.128906 295.90625 73.90625 308.632812 71.949219 Z M 308.632812 71.949219 " fill-opacity="1" fill-rule="nonzero"/></g></svg>